<svg xmlns="http://www.w3.org/2000/svg" xmlns:xlink="http://www.w3.org/1999/xlink" width="340" zoomAndPan="magnify" viewBox="0 0 255 127.499994" height="170" preserveAspectRatio="xMidYMid meet" version="1.0"><path fill="#f47820" d="M 74.414062 74.242188 L 70.839844 74.242188 L 70.839844 68.007812 L 63.480469 68.007812 L 63.480469 74.242188 L 59.929688 74.242188 L 59.929688 58.703125 L 63.480469 58.703125 L 63.480469 64.828125 L 70.839844 64.828125 L 70.839844 58.703125 L 74.410156 58.703125 Z M 74.414062 74.242188 " fill-opacity="1" fill-rule="nonzero"/><path fill="#f47820" d="M 83.5 65.722656 C 82.675781 65.722656 81.980469 66.007812 81.375 66.609375 C 80.796875 67.183594 80.503906 67.878906 80.503906 68.695312 C 80.503906 69.515625 80.792969 70.207031 81.375 70.808594 C 81.980469 71.382812 82.671875 71.675781 83.5 71.675781 C 84.328125 71.675781 85.039062 71.386719 85.621094 70.808594 C 86.226562 70.207031 86.515625 69.519531 86.515625 68.695312 C 86.515625 67.871094 86.226562 67.183594 85.621094 66.609375 C 85.042969 66.007812 84.328125 65.722656 83.5 65.722656 M 83.523438 62.921875 C 85.265625 62.921875 86.734375 63.480469 87.964844 64.609375 C 89.195312 65.742188 89.820312 67.097656 89.820312 68.695312 C 89.820312 70.296875 89.195312 71.652344 87.964844 72.78125 C 86.734375 73.914062 85.265625 74.46875 83.523438 74.46875 C 81.804688 74.46875 80.308594 73.914062 79.082031 72.78125 C 77.859375 71.652344 77.253906 70.296875 77.253906 68.695312 C 77.253906 67.097656 77.859375 65.742188 79.082031 64.609375 C 80.308594 63.480469 81.804688 62.921875 83.523438 62.921875 " fill-opacity="1" fill-rule="nonzero"/><path fill="#f47820" d="M 102.9375 64.609375 C 104.457031 63.367188 105.792969 62.921875 107.421875 62.921875 C 109.605469 62.921875 111.347656 64.191406 111.347656 66.722656 L 111.347656 74.242188 L 108.023438 74.242188 L 108.023438 67.714844 C 108.023438 66.359375 107.265625 65.585938 106.082031 65.585938 C 105.078125 65.585938 104.167969 65.898438 103.335938 66.539062 C 103.40625 67.050781 103.425781 67.539062 103.425781 68.007812 L 103.425781 74.242188 L 100.101562 74.242188 L 100.101562 67.714844 C 100.101562 66.359375 99.34375 65.585938 98.160156 65.585938 C 97.242188 65.585938 96.351562 65.914062 95.527344 66.558594 L 95.527344 74.242188 L 92.199219 74.242188 L 92.199219 63.148438 L 95.523438 63.148438 L 95.523438 64.566406 C 96.796875 63.480469 98.179688 62.921875 99.648438 62.921875 C 101.1875 62.921875 102.28125 63.480469 102.929688 64.609375 " fill-opacity="1" fill-rule="nonzero"/><path fill="#f47820" d="M 117.648438 66.050781 C 117.132812 66.582031 116.867188 67.226562 116.867188 67.957031 L 122.160156 67.957031 C 122.160156 66.425781 121.132812 65.253906 119.527344 65.253906 C 118.792969 65.253906 118.164062 65.523438 117.652344 66.050781 M 125.261719 68.695312 L 125.261719 69.539062 L 116.84375 69.539062 C 116.867188 70.296875 117.175781 70.914062 117.761719 71.382812 C 118.34375 71.851562 119.03125 72.070312 119.859375 72.09375 C 120.976562 72.09375 121.886719 71.738281 122.628906 71.007812 L 124.371094 72.5625 C 123.03125 73.824219 121.421875 74.46875 119.570312 74.46875 C 117.941406 74.46875 116.535156 73.914062 115.375 72.78125 C 114.210938 71.652344 113.632812 70.296875 113.632812 68.695312 C 113.632812 67.097656 114.191406 65.742188 115.328125 64.609375 C 116.46875 63.480469 117.855469 62.921875 119.457031 62.921875 C 123.007812 62.898438 125.324219 65.496094 125.261719 68.695312 " fill-opacity="1" fill-rule="nonzero"/><path fill="#f47820" d="M 139.078125 65.90625 C 138.25 65.90625 137.546875 66.199219 136.9375 66.808594 C 136.355469 67.394531 136.058594 68.101562 136.058594 68.933594 C 136.058594 69.769531 136.347656 70.472656 136.9375 71.085938 C 137.546875 71.671875 138.242188 71.96875 139.078125 71.96875 C 139.914062 71.96875 140.628906 71.675781 141.214844 71.085938 C 141.824219 70.472656 142.113281 69.773438 142.113281 68.933594 C 142.113281 68.09375 141.824219 67.394531 141.214844 66.808594 C 140.632812 66.199219 139.914062 65.90625 139.078125 65.90625 M 139.101562 63.054688 C 140.855469 63.054688 142.335938 63.621094 143.578125 64.773438 C 144.816406 65.925781 145.4375 67.304688 145.4375 68.933594 C 145.4375 70.5625 144.8125 71.945312 143.570312 73.09375 C 142.328125 74.246094 140.847656 74.8125 139.097656 74.8125 C 137.363281 74.8125 135.855469 74.246094 134.621094 73.09375 C 133.386719 71.945312 132.78125 70.5625 132.78125 68.933594 C 132.78125 67.304688 133.386719 65.925781 134.621094 64.773438 C 135.855469 63.621094 137.363281 63.054688 139.097656 63.054688 " fill-opacity="1" fill-rule="nonzero"/><path fill="#f47820" d="M 155.378906 59.015625 L 154.957031 61.097656 C 154.4375 60.894531 153.96875 60.804688 153.5625 60.804688 C 152.550781 60.828125 151.828125 61.433594 151.828125 62.539062 L 151.828125 63.285156 L 154.867188 63.285156 L 154.867188 65.835938 L 151.828125 65.835938 L 151.828125 74.585938 L 148.476562 74.585938 L 148.476562 65.84375 L 146.925781 65.84375 L 146.925781 63.285156 L 148.476562 63.285156 L 148.476562 62.453125 C 148.476562 59.761719 150.183594 58.539062 152.542969 58.539062 C 153.421875 58.539062 154.367188 58.699219 155.378906 59.015625 " fill-opacity="1" fill-rule="nonzero"/><path fill="#f47820" d="M 175.269531 61.855469 L 166.324219 61.855469 L 166.324219 64.839844 L 174.644531 64.839844 L 174.644531 67.847656 L 166.324219 67.847656 L 166.324219 71.007812 L 175.425781 71.007812 L 175.425781 74.171875 L 162.769531 74.171875 L 162.769531 58.695312 L 175.269531 58.695312 Z M 175.269531 61.855469 " fill-opacity="1" fill-rule="nonzero"/><path fill="#f47820" d="M 178 58.695312 L 181.328125 58.695312 L 181.328125 74.171875 L 178 74.171875 Z M 178 58.695312 " fill-opacity="1" fill-rule="nonzero"/><path fill="#f47820" d="M 187.609375 66.011719 C 187.09375 66.539062 186.828125 67.183594 186.828125 67.910156 L 192.128906 67.910156 C 192.128906 66.386719 191.101562 65.214844 189.492188 65.214844 C 188.753906 65.214844 188.125 65.484375 187.613281 66.011719 M 195.234375 68.644531 L 195.234375 69.484375 L 186.804688 69.484375 C 186.828125 70.238281 187.136719 70.851562 187.722656 71.320312 C 188.308594 71.785156 188.992188 72.003906 189.824219 72.03125 C 190.945312 72.03125 191.855469 71.675781 192.597656 70.945312 L 194.34375 72.496094 C 193.003906 73.753906 191.390625 74.394531 189.535156 74.394531 C 187.90625 74.394531 186.496094 73.839844 185.332031 72.714844 C 184.167969 71.585938 183.585938 70.238281 183.585938 68.644531 C 183.585938 67.050781 184.148438 65.699219 185.285156 64.574219 C 186.425781 63.449219 187.816406 62.894531 189.421875 62.894531 C 192.976562 62.867188 195.300781 65.457031 195.234375 68.644531 " fill-opacity="1" fill-rule="nonzero"/><path fill="#f47820" d="M 208.09375 65.277344 L 205.542969 66.691406 C 204.964844 66.003906 204.222656 65.675781 203.328125 65.675781 C 202.5 65.675781 201.804688 65.960938 201.226562 66.558594 C 200.648438 67.132812 200.359375 67.816406 200.359375 68.636719 C 200.359375 69.460938 200.648438 70.144531 201.226562 70.742188 C 201.804688 71.3125 202.503906 71.605469 203.328125 71.605469 C 204.246094 71.605469 205.003906 71.25 205.605469 70.542969 L 208.136719 71.9375 C 207.042969 73.441406 205.210938 74.386719 203.171875 74.386719 C 201.496094 74.386719 200.042969 73.835938 198.855469 72.707031 C 197.664062 71.582031 197.085938 70.230469 197.085938 68.636719 C 197.085938 67.042969 197.664062 65.695312 198.855469 64.566406 C 200.042969 63.441406 201.492188 62.886719 203.171875 62.886719 C 205.160156 62.886719 206.949219 63.796875 208.09375 65.277344 " fill-opacity="1" fill-rule="nonzero"/><path fill="#f47820" d="M 214.441406 63.113281 L 217.394531 63.113281 L 217.394531 65.613281 L 214.441406 65.613281 L 214.441406 69.96875 C 214.441406 71.097656 215.179688 71.738281 216.230469 71.738281 C 216.746094 71.738281 217.238281 71.582031 217.753906 71.296875 L 218.175781 73.546875 C 217.125 74.101562 216.046875 74.363281 214.953125 74.386719 C 213.855469 74.414062 212.9375 74.078125 212.203125 73.417969 C 211.464844 72.734375 211.105469 71.78125 211.105469 70.542969 L 211.105469 65.613281 L 209.503906 65.613281 L 209.503906 63.113281 L 211.113281 63.113281 L 211.113281 60.148438 L 214.441406 60.148438 Z M 214.441406 63.113281 " fill-opacity="1" fill-rule="nonzero"/><path fill="#f47820" d="M 228.0625 65.546875 C 226.476562 65.546875 225.066406 66.230469 223.855469 67.597656 L 223.855469 74.171875 L 220.519531 74.171875 L 220.519531 63.113281 L 223.851562 63.113281 L 223.851562 65.164062 C 225.035156 63.726562 226.554688 62.886719 228.054688 62.886719 Z M 228.0625 65.546875 " fill-opacity="1" fill-rule="nonzero"/><path fill="#f47820" d="M 233.464844 74.171875 L 230.136719 74.171875 L 230.136719 63.113281 L 233.464844 63.113281 Z M 233.042969 59.222656 C 233.761719 59.777344 233.761719 60.726562 233.042969 61.324219 C 232.351562 61.921875 231.257812 61.921875 230.539062 61.324219 C 229.847656 60.726562 229.847656 59.777344 230.539062 59.222656 C 231.257812 58.625 232.351562 58.625 233.042969 59.222656 " fill-opacity="1" fill-rule="nonzero"/><path fill="#f47820" d="M 246.972656 65.277344 L 244.421875 66.691406 C 243.84375 66.003906 243.101562 65.675781 242.207031 65.675781 C 241.375 65.675781 240.683594 65.960938 240.105469 66.558594 C 239.527344 67.132812 239.230469 67.816406 239.230469 68.636719 C 239.230469 69.460938 239.519531 70.144531 240.105469 70.742188 C 240.683594 71.3125 241.375 71.605469 242.207031 71.605469 C 243.125 71.605469 243.882812 71.25 244.484375 70.542969 L 247.007812 71.9375 C 245.914062 73.441406 244.082031 74.386719 242.042969 74.386719 C 240.371094 74.386719 238.917969 73.835938 237.726562 72.707031 C 236.539062 71.582031 235.957031 70.230469 235.957031 68.636719 C 235.957031 67.042969 236.539062 65.695312 237.726562 64.566406 C 238.917969 63.441406 240.363281 62.886719 242.042969 62.886719 C 244.03125 62.886719 245.820312 63.796875 246.964844 65.277344 " fill-opacity="1" fill-rule="nonzero"/><path fill="#f37820" d="M 53.445312 67.945312 L 53.445312 65.570312 L 41.5 65.570312 L 41.5 52.96875 L 39.121094 50.589844 L 39.121094 85.535156 L 53.390625 85.535156 L 53.390625 83.160156 L 41.5 83.160156 L 41.5 76.621094 L 50.714844 76.621094 L 50.714844 74.242188 L 41.5 74.242188 L 41.5 67.945312 Z M 53.445312 67.945312 " fill-opacity="1" fill-rule="nonzero"/><path fill="#f37820" d="M 39.003906 41.320312 C 37.636719 39.953125 35.914062 39.179688 33.953125 39 C 33.714844 39 33.480469 39 33.242188 39 C 31.101562 39 29.019531 39.832031 27.535156 41.378906 L 15.886719 52.96875 L 14.339844 54.511719 L 14.164062 54.691406 C 14.101562 54.75 14.042969 54.8125 13.984375 54.871094 C 13.921875 54.929688 13.867188 54.988281 13.804688 55.046875 L 13.6875 55.167969 C 12.320312 56.710938 11.546875 58.613281 11.546875 60.632812 L 11.546875 82.566406 C 11.546875 84.230469 12.914062 85.597656 14.578125 85.597656 L 27.949219 85.597656 L 27.949219 67.945312 L 35.496094 67.945312 L 35.496094 65.570312 L 28.070312 65.570312 L 28.070312 50.652344 L 25.691406 53.027344 L 25.691406 82.863281 L 21.175781 82.863281 L 21.175781 72.164062 L 18.859375 72.164062 L 18.859375 82.863281 L 16.417969 82.863281 C 15.289062 82.863281 14.402344 81.972656 14.402344 80.84375 L 14.402344 60.632812 C 14.402344 59.269531 14.875 58.019531 15.765625 57.007812 C 15.765625 57.007812 15.886719 56.890625 15.945312 56.832031 L 16.003906 56.773438 C 16.0625 56.710938 16.125 56.652344 16.183594 56.652344 L 29.496094 43.339844 C 30.386719 42.449219 31.636719 41.855469 32.882812 41.792969 C 33.0625 41.792969 33.179688 41.792969 33.359375 41.792969 C 34.84375 41.792969 36.210938 42.328125 37.160156 43.398438 L 38.589844 44.765625 L 50.296875 56.414062 L 52.199219 54.511719 Z M 39.003906 41.320312 " fill-opacity="1" fill-rule="nonzero"/><path fill="#f37820" d="M 51.84375 73.828125 C 50.949219 73.828125 50.238281 74.542969 50.238281 75.433594 C 50.238281 76.324219 50.949219 77.039062 51.84375 77.039062 C 52.734375 77.039062 53.445312 76.324219 53.445312 75.433594 C 53.445312 74.542969 52.734375 73.828125 51.84375 73.828125 Z M 51.84375 76.148438 C 51.425781 76.148438 51.070312 75.789062 51.070312 75.375 C 51.070312 74.957031 51.425781 74.601562 51.84375 74.601562 C 52.257812 74.601562 52.613281 74.957031 52.613281 75.375 C 52.613281 75.789062 52.257812 76.148438 51.84375 76.148438 Z M 51.84375 76.148438 " fill-opacity="1" fill-rule="nonzero"/><path fill="#f37820" d="M 19.988281 69.492188 C 19.09375 69.492188 18.382812 70.203125 18.382812 71.09375 C 18.382812 71.988281 19.09375 72.699219 19.988281 72.699219 C 20.875 72.699219 21.589844 71.988281 21.589844 71.09375 C 21.652344 70.203125 20.875 69.492188 19.988281 69.492188 Z M 19.988281 71.808594 C 19.570312 71.808594 19.210938 71.449219 19.210938 71.035156 C 19.210938 70.617188 19.570312 70.324219 19.988281 70.324219 C 20.402344 70.324219 20.757812 70.679688 20.757812 71.09375 C 20.757812 71.511719 20.460938 71.808594 19.988281 71.808594 Z M 19.988281 71.808594 " fill-opacity="1" fill-rule="nonzero"/></svg>