<svg id="Layer_1" data-name="Layer 1" xmlns="http://www.w3.org/2000/svg" viewBox="0 0 168.59 98.74"><defs><style>.cls-1{fill:#f37820;}</style></defs><path class="cls-1" d="M190.79,7.35V6.76h-3V3.62l-.3-.29L187.24,3v8.68h3.55v-.59h-3V11h0V9.49h2.29a.41.41,0,0,0,.27.1.4.4,0,1,0-.27-.69h-2.29V7.35ZM190.39,9a.2.2,0,0,1,0,.39A.2.2,0,0,1,190.39,9Z" transform="translate(-22.21 -0.13)"/><path class="cls-1" d="M190,4.47l.48-.48-2-2-.73-.73-.55-.55A2,2,0,0,0,186,.14h-.18a2,2,0,0,0-1.43.59l-2.9,2.9-.39.39,0,0s0,0,0,0l0,0,0,0a2,2,0,0,0-.52,1.36v5.36h0V11a.77.77,0,0,0,.76.77h3.32V11h0V7.35h1.88V6.76h-1.88V3l-.58.58V11h-1.13V8.39a.39.39,0,0,0,.11-.27.4.4,0,0,0-.69-.28.39.39,0,0,0,0,.55V11h-.61a.51.51,0,0,1-.51-.51V6h0V5.51a1.32,1.32,0,0,1,.34-.9l0,0,0,0,0,0,1.33-1.34,2-2a1.27,1.27,0,0,1,.84-.39h.11a1.31,1.31,0,0,1,.95.4l.35.34.93.94Zm-7.33,3.65a.19.19,0,0,1-.38,0A.19.19,0,1,1,182.67,8.12Z" transform="translate(-22.21 -0.13)"/><path class="cls-1" d="M169.64,7.35V6.76h-3V3.62l-.3-.29L166.08,3v8.68h3.55v-.59h-3V11h0V9.49H169a.41.41,0,0,0,.27.1A.4.4,0,1,0,169,8.9h-2.29V7.35ZM169.23,9a.2.2,0,0,1,0,.39A.2.2,0,0,1,169.23,9Z" transform="translate(-22.21 -0.13)"/><path class="cls-1" d="M168.85,4.47l.47-.48-2-2-.73-.73-.55-.55A2,2,0,0,0,164.8.14h-.18a2,2,0,0,0-1.43.59l-2.9,2.9L159.9,4l0,0s0,0,0,0l0,0,0,0a2,2,0,0,0-.52,1.36v5.36h0V11a.77.77,0,0,0,.76.77h3.32V11h0V7.35h1.88V6.76h-1.88V3l-.58.58V11h-1.13V8.39a.39.39,0,0,0,.11-.27.4.4,0,0,0-.69-.28.39.39,0,0,0,0,.55V11h-.61a.51.51,0,0,1-.51-.51V6h0V5.51a1.32,1.32,0,0,1,.34-.9l0,0,0,0,0,0,1.33-1.34,2-2a1.29,1.29,0,0,1,.84-.39h.11a1.31,1.31,0,0,1,.95.4l.35.34.93.94Zm-7.34,3.65a.19.19,0,0,1-.38,0A.19.19,0,1,1,161.51,8.12Z" transform="translate(-22.21 -0.13)"/><path class="cls-1" d="M148.48,7.35V6.76h-3V3.62l-.3-.29L144.92,3v8.68h3.55v-.59h-3V11h0V9.49h2.29a.41.41,0,0,0,.27.1.4.4,0,1,0-.27-.69h-2.29V7.35ZM148.07,9a.2.2,0,0,1,0,.39A.2.2,0,0,1,148.07,9Z" transform="translate(-22.21 -0.13)"/><path class="cls-1" d="M147.69,4.47l.47-.48-2-2-.73-.73-.55-.55a2,2,0,0,0-1.25-.58h-.18A2,2,0,0,0,142,.72l-2.9,2.9-.38.39,0,0,0,0,0,0,0,0a2,2,0,0,0-.52,1.36v5.36h0V11a.77.77,0,0,0,.76.77h3.33V11h0V7.35H144V6.76h-1.87V3l-.59.58V11h-1.13V8.39a.39.39,0,0,0,.11-.27.4.4,0,1,0-.69.27V11h-.61a.51.51,0,0,1-.51-.51V6h0V5.51a1.32,1.32,0,0,1,.34-.9l0,0,0,0s0,0,0,0l1.33-1.34,2-2a1.29,1.29,0,0,1,.84-.39h.11a1.31,1.31,0,0,1,.95.4l.35.34.94.94Zm-7.34,3.65a.19.19,0,0,1-.38,0A.19.19,0,1,1,140.35,8.12Z" transform="translate(-22.21 -0.13)"/><path class="cls-1" d="M127.32,7.35V6.76h-3V3.62l-.29-.29-.3-.29v8.68h3.55v-.59h-3V11h0V9.49h2.29a.43.43,0,0,0,.27.1.4.4,0,1,0-.27-.69h-2.29V7.35ZM126.91,9a.2.2,0,0,1,0,.39A.2.2,0,0,1,126.91,9Z" transform="translate(-22.21 -0.13)"/><path class="cls-1" d="M126.53,4.47,127,4l-2-2-.73-.73-.55-.55a2,2,0,0,0-1.25-.58h-.18a2,2,0,0,0-1.43.59L118,3.62l-.38.39,0,0,0,0,0,0,0,0a2,2,0,0,0-.52,1.36v5.36h0V11a.77.77,0,0,0,.75.77H121V11h0V7.35h1.87V6.76H121V3l-.59.58V11H119.3V8.39a.43.43,0,0,0,.1-.27.4.4,0,0,0-.69-.28.41.41,0,0,0,0,.55V11h-.61a.51.51,0,0,1-.51-.51V6h0V5.51a1.37,1.37,0,0,1,.34-.9l0,0,0,0s0,0,0,0l1.33-1.34,2-2a1.29,1.29,0,0,1,.84-.39h.11a1.31,1.31,0,0,1,1,.4l.35.34.94.94Zm-7.34,3.65a.19.19,0,0,1-.38,0A.19.19,0,1,1,119.19,8.12Z" transform="translate(-22.21 -0.13)"/><path class="cls-1" d="M106.16,7.35V6.76h-3V3.62l-.29-.29L102.6,3v8.68h3.55v-.59h-3V11h0V9.49h2.29a.43.43,0,0,0,.27.1A.4.4,0,0,0,106,8.9a.41.41,0,0,0-.55,0h-2.29V7.35ZM105.75,9a.19.19,0,0,1,0,.39A.19.19,0,0,1,105.75,9Z" transform="translate(-22.21 -0.13)"/><path class="cls-1" d="M105.37,4.47l.47-.48-2-2-.73-.73-.55-.55a2,2,0,0,0-1.25-.58h-.18a2,2,0,0,0-1.43.59l-2.9,2.9L96.43,4l0,0,0,0,0,0,0,0a2.06,2.06,0,0,0-.52,1.36v5.36h0V11a.77.77,0,0,0,.75.77h3.33V11h0V7.35h1.87V6.76H99.85V3l-.59.58V11H98.14V8.39a.43.43,0,0,0,.1-.27.4.4,0,0,0-.69-.28.41.41,0,0,0,0,.55V11h-.61a.51.51,0,0,1-.51-.51V6h0V5.51a1.33,1.33,0,0,1,.35-.9s0,0,0,0l0,0s0,0,0,0L98.2,3.18l2-2A1.29,1.29,0,0,1,101,.81h.11a1.31,1.31,0,0,1,1,.4l.35.34.94.94ZM98,8.12a.2.2,0,0,1-.39,0A.2.2,0,0,1,98,8.12Z" transform="translate(-22.21 -0.13)"/><path class="cls-1" d="M85,7.35V6.76H82V3.62l-.29-.29L81.44,3v8.68H85v-.59H82V11h0V9.49h2.29a.43.43,0,0,0,.27.1.4.4,0,0,0,.28-.69.41.41,0,0,0-.55,0H82V7.35ZM84.59,9a.2.2,0,1,1,0,.39A.2.2,0,0,1,84.59,9Z" transform="translate(-22.21 -0.13)"/><path class="cls-1" d="M84.21,4.47,84.68,4l-2-2L82,1.27,81.41.72A2,2,0,0,0,80.16.14H80a2,2,0,0,0-1.42.59l-2.91,2.9L75.27,4l0,0,0,0,0,0,0,0a2.06,2.06,0,0,0-.52,1.36v5.36h0V11a.77.77,0,0,0,.75.77h3.33V11h0V7.35h1.87V6.76H78.69V3l-.59.58V11H77V8.39a.44.44,0,0,0,.11-.27.41.41,0,0,0-.7-.28.41.41,0,0,0,0,.55V11h-.61a.51.51,0,0,1-.51-.51V6h0V5.51a1.33,1.33,0,0,1,.35-.9s0,0,0,0l0,0s0,0,0,0L77,3.18l2-2a1.29,1.29,0,0,1,.84-.39H80a1.31,1.31,0,0,1,1,.4l.35.34.94.94ZM76.88,8.12a.2.2,0,0,1-.39,0A.2.2,0,0,1,76.88,8.12Z" transform="translate(-22.21 -0.13)"/><path class="cls-1" d="M63.84,7.35V6.76h-3V3.62l-.29-.29L60.28,3v8.68h3.55v-.59h-3V11h0V9.49h2.29a.43.43,0,0,0,.27.1.4.4,0,0,0,.28-.69.41.41,0,0,0-.55,0H60.87V7.35ZM63.43,9a.2.2,0,0,1,0,.39A.2.2,0,0,1,63.43,9Z" transform="translate(-22.21 -0.13)"/><path class="cls-1" d="M63.05,4.47,63.52,4l-2-2-.73-.73L60.25.72A2,2,0,0,0,59,.14h-.18A2,2,0,0,0,57.4.72l-2.9,2.9L54.11,4l0,0,0,0,0,0,0,0a2,2,0,0,0-.53,1.36v5.36h0V11a.77.77,0,0,0,.75.77h3.33V11h0V7.35H59.4V6.76H57.53V3l-.59.58V11H55.82V8.39a.44.44,0,0,0,.11-.27.41.41,0,0,0-.7-.28.41.41,0,0,0,0,.55V11h-.6a.51.51,0,0,1-.51-.51V6h0V5.51a1.33,1.33,0,0,1,.35-.9s0,0,0,0l0,0,0,0,1.33-1.34,2-2a1.29,1.29,0,0,1,.84-.39h.11a1.31,1.31,0,0,1,1,.4l.35.34.94.94ZM55.72,8.12a.2.2,0,0,1-.39,0A.2.2,0,1,1,55.72,8.12Z" transform="translate(-22.21 -0.13)"/><path class="cls-1" d="M42.68,7.35V6.76h-3V3.62l-.29-.29L39.12,3v8.68h3.56v-.59h-3V11h0V9.49H42a.43.43,0,0,0,.27.1.4.4,0,0,0,.28-.69.41.41,0,0,0-.55,0H39.71V7.35ZM42.27,9a.2.2,0,0,1,0,.39A.2.2,0,0,1,42.27,9Z" transform="translate(-22.21 -0.13)"/><path class="cls-1" d="M41.89,4.47,42.36,4l-2-2-.73-.73L39.09.72A2,2,0,0,0,37.84.14h-.18a2,2,0,0,0-1.42.59l-2.9,2.9L33,4l0,0s0,0,0,0,0,0,0,0l0,0a2,2,0,0,0-.53,1.36v5.36h0V11a.77.77,0,0,0,.75.77h3.33V11h0V7.35h1.87V6.76H36.37V3l-.59.58V11H34.66V8.39a.39.39,0,0,0,.11-.27.41.41,0,0,0-.7-.28.41.41,0,0,0,0,.55V11h-.6a.51.51,0,0,1-.51-.51V6h0V5.51a1.33,1.33,0,0,1,.35-.9s0,0,0,0l0,0s0,0,0,0l1.33-1.34,2-2a1.29,1.29,0,0,1,.84-.39h.11a1.35,1.35,0,0,1,1,.4l.34.34.94.94ZM34.56,8.12a.2.2,0,0,1-.39,0A.2.2,0,1,1,34.56,8.12Z" transform="translate(-22.21 -0.13)"/><path class="cls-1" d="M22.21,17.6v.58h3v3.14l.3.29.29.3V13.23H22.21v.59h3v.08h0v1.56H22.88a.37.37,0,0,0-.27-.11.4.4,0,0,0-.27.69.38.38,0,0,0,.54,0h2.29V17.6Zm.4-1.66a.19.19,0,0,1,0-.38A.19.19,0,1,1,22.61,15.94Z" transform="translate(-22.21 -0.13)"/><path class="cls-1" d="M23,20.47l-.48.48,2,2,.73.73.55.55a2,2,0,0,0,1.25.59h.18a2,2,0,0,0,1.43-.59l2.9-2.9.39-.38,0,0a.08.08,0,0,0,0,0,.08.08,0,0,0,0,0l0,0a2,2,0,0,0,.52-1.36V14.07h0V14a.76.76,0,0,0-.76-.76H28.52v.67h0v3.7H26.64v.58h1.88v3.73l.58-.59V13.9h1.13v2.65a.41.41,0,0,0-.11.28.4.4,0,0,0,.69.27.39.39,0,0,0,0-.55V13.9h.61a.51.51,0,0,1,.51.51V19h0v.45a1.32,1.32,0,0,1-.34.9l0,0,0,0,0,0-1.33,1.33-2,2a1.37,1.37,0,0,1-.84.39h-.11a1.34,1.34,0,0,1-.95-.39l-.35-.35L25,22.46Zm7.33-3.64a.19.19,0,1,1,.38,0A.19.19,0,0,1,30.33,16.83Z" transform="translate(-22.21 -0.13)"/><path class="cls-1" d="M43.36,17.6v.58h3v3.14l.3.29.29.3V13.23H43.37v.59h3v.08h0v1.56H44a.37.37,0,0,0-.27-.11.4.4,0,0,0-.27.69A.38.38,0,0,0,44,16h2.29V17.6Zm.41-1.66a.19.19,0,0,1,0-.38A.19.19,0,0,1,43.77,15.94Z" transform="translate(-22.21 -0.13)"/><path class="cls-1" d="M44.15,20.47l-.47.48,2,2,.73.73.55.55a2,2,0,0,0,1.25.59h.18a2,2,0,0,0,1.43-.59l2.9-2.9.39-.38,0,0,0,0a.08.08,0,0,0,0,0l0,0a2,2,0,0,0,.52-1.36V14.07h0V14a.76.76,0,0,0-.76-.76H49.68v.67h0v3.7H47.8v.58h1.88v3.73l.58-.59V13.9h1.13v2.65a.41.41,0,0,0-.11.28.4.4,0,0,0,.69.27.39.39,0,0,0,0-.55V13.9h.61a.51.51,0,0,1,.51.51V19h0v.45a1.32,1.32,0,0,1-.34.9l0,0,0,0,0,0-1.33,1.33-2,2a1.4,1.4,0,0,1-.84.39h-.11a1.34,1.34,0,0,1-1-.39l-.35-.35-.93-.94Zm7.34-3.64a.19.19,0,1,1,.38,0A.19.19,0,0,1,51.49,16.83Z" transform="translate(-22.21 -0.13)"/><path class="cls-1" d="M64.52,17.6v.58h3v3.14l.3.29.29.3V13.23H64.53v.59h3v.08h0v1.56H65.2a.37.37,0,0,0-.27-.11.4.4,0,0,0-.27.69.38.38,0,0,0,.54,0h2.29V17.6Zm.41-1.66a.19.19,0,0,1,0-.38A.19.19,0,0,1,64.93,15.94Z" transform="translate(-22.21 -0.13)"/><path class="cls-1" d="M65.31,20.47l-.47.48,2,2,.73.73.55.55a2,2,0,0,0,1.25.59h.18A2,2,0,0,0,71,24.22l2.9-2.9.38-.38,0,0,0,0,0,0,0,0a2,2,0,0,0,.52-1.36V14.07h0V14a.76.76,0,0,0-.76-.76H70.83v.67h0v3.7H69v.58h1.87v3.73l.59-.59V13.9h1.13v2.65a.41.41,0,0,0-.11.28.4.4,0,1,0,.69-.28V13.9h.61a.51.51,0,0,1,.51.51V19h0v.45a1.32,1.32,0,0,1-.34.9l0,0,0,0,0,0-1.33,1.33-2,2a1.4,1.4,0,0,1-.84.39h-.11a1.34,1.34,0,0,1-1-.39l-.35-.35-.94-.94Zm7.34-3.64a.19.19,0,1,1,.38,0A.19.19,0,0,1,72.65,16.83Z" transform="translate(-22.21 -0.13)"/><path class="cls-1" d="M85.68,17.6v.58h3v3.14l.29.29.3.3V13.23H85.69v.59h3v.08h0v1.56H86.36a.39.39,0,0,0-.27-.11.4.4,0,0,0-.27.69.38.38,0,0,0,.54,0h2.29V17.6Zm.41-1.66a.19.19,0,1,1,0-.38A.19.19,0,0,1,86.09,15.94Z" transform="translate(-22.21 -0.13)"/><path class="cls-1" d="M86.47,20.47,86,21l2,2,.73.73.55.55a2,2,0,0,0,1.25.59h.18a2,2,0,0,0,1.43-.59l2.9-2.9.38-.38,0,0s0,0,0,0l0,0,0,0a2,2,0,0,0,.52-1.36V14.07h0V14a.75.75,0,0,0-.75-.76H92v.67h0v3.7H90.12v.58H92v3.73l.59-.59V13.9H93.7v2.65a.45.45,0,0,0-.1.28.4.4,0,0,0,.69.27.41.41,0,0,0,0-.55V13.9h.61a.51.51,0,0,1,.51.51V19h0v.45a1.37,1.37,0,0,1-.34.9l0,0,0,0,0,0-1.33,1.33-2,2a1.4,1.4,0,0,1-.84.39H90.7a1.34,1.34,0,0,1-1-.39l-.35-.35-.94-.94Zm7.34-3.64a.19.19,0,1,1,.38,0A.19.19,0,0,1,93.81,16.83Z" transform="translate(-22.21 -0.13)"/><path class="cls-1" d="M106.84,17.6v.58h3v3.14l.29.29.3.3V13.23h-3.55v.59h3v.08h0v1.56h-2.29a.39.39,0,0,0-.27-.11A.4.4,0,0,0,107,16a.39.39,0,0,0,.55,0h2.29V17.6Zm.41-1.66a.19.19,0,1,1,0-.38A.19.19,0,0,1,107.25,15.94Z" transform="translate(-22.21 -0.13)"/><path class="cls-1" d="M107.63,20.47l-.47.48,2,2,.73.73.55.55a2,2,0,0,0,1.25.59h.18a2,2,0,0,0,1.43-.59l2.9-2.9.38-.38,0,0,0,0s0,0,0,0l0,0a2,2,0,0,0,.52-1.36V14.07h0V14a.75.75,0,0,0-.75-.76h-3.33v.67h0v3.7h-1.87v.58h1.87v3.73l.59-.59V13.9h1.12v2.65a.45.45,0,0,0-.1.28.4.4,0,0,0,.69.27.41.41,0,0,0,0-.55V13.9h.61a.51.51,0,0,1,.51.51V19h0v.45a1.33,1.33,0,0,1-.35.9s0,0,0,0l0,0,0,0-1.33,1.33-2,2a1.4,1.4,0,0,1-.84.39h-.11a1.34,1.34,0,0,1-1-.39l-.35-.35-.94-.94ZM115,16.83a.2.2,0,0,1,.39,0A.2.2,0,0,1,115,16.83Z" transform="translate(-22.21 -0.13)"/><path class="cls-1" d="M128,17.6v.58h3v3.14l.29.29.3.3V13.23H128v.59h3v.08h0v1.56h-2.29a.39.39,0,0,0-.27-.11.4.4,0,0,0-.28.69.39.39,0,0,0,.55,0H131V17.6Zm.41-1.66a.19.19,0,1,1,0-.38A.19.19,0,0,1,128.41,15.94Z" transform="translate(-22.21 -0.13)"/><path class="cls-1" d="M128.79,20.47l-.47.48,2,2,.73.73.55.55a2,2,0,0,0,1.25.59H133a2,2,0,0,0,1.42-.59l2.91-2.9.38-.38,0,0s0,0,0,0,0,0,0,0l0,0a2,2,0,0,0,.52-1.36V14.07h0V14a.76.76,0,0,0-.75-.76h-3.33v.67h0v3.7h-1.87v.58h1.87v3.73l.59-.59V13.9H136v2.65a.46.46,0,0,0-.11.28.41.41,0,0,0,.7.27.41.41,0,0,0,0-.55V13.9h.61a.51.51,0,0,1,.51.51V19h0v.45a1.33,1.33,0,0,1-.35.9s0,0,0,0l0,0,0,0L136,21.76l-2,2a1.4,1.4,0,0,1-.84.39H133a1.34,1.34,0,0,1-1-.39l-.35-.35-.94-.94Zm7.33-3.64a.19.19,0,1,1,.39,0A.19.19,0,0,1,136.12,16.83Z" transform="translate(-22.21 -0.13)"/><path class="cls-1" d="M149.16,17.6v.58h3v3.14l.29.29.3.3V13.23h-3.55v.59h3v.08h0v1.56h-2.29a.39.39,0,0,0-.27-.11.4.4,0,0,0-.28.69.39.39,0,0,0,.55,0h2.29V17.6Zm.41-1.66a.19.19,0,1,1,0-.38A.19.19,0,0,1,149.57,15.94Z" transform="translate(-22.21 -0.13)"/><path class="cls-1" d="M150,20.47l-.47.48,2,2,.73.73.55.55a2,2,0,0,0,1.25.59h.18a2,2,0,0,0,1.42-.59l2.9-2.9.39-.38,0,0s0,0,0,0,0,0,0,0l0,0a2,2,0,0,0,.53-1.36V14.07h0V14a.76.76,0,0,0-.75-.76h-3.33v.67h0v3.7H153.6v.58h1.87v3.73l.59-.59V13.9h1.12v2.65a.46.46,0,0,0-.11.28.41.41,0,0,0,.7.27.41.41,0,0,0,0-.55V13.9h.6a.51.51,0,0,1,.51.51V19h0v.45a1.33,1.33,0,0,1-.35.9s0,0,0,0l0,0,0,0-1.33,1.33-2,2a1.4,1.4,0,0,1-.84.39h-.11a1.34,1.34,0,0,1-1-.39l-.35-.35-.94-.94Zm7.33-3.64a.19.19,0,1,1,.39,0A.19.19,0,0,1,157.28,16.83Z" transform="translate(-22.21 -0.13)"/><path class="cls-1" d="M170.32,17.6v.58h3v3.14l.29.29.3.3V13.23h-3.56v.59h3v.08h0v1.56H171a.39.39,0,0,0-.27-.11.4.4,0,0,0-.28.69.39.39,0,0,0,.55,0h2.29V17.6Zm.41-1.66a.19.19,0,1,1,0-.38A.19.19,0,0,1,170.73,15.94Z" transform="translate(-22.21 -0.13)"/><path class="cls-1" d="M171.11,20.47l-.47.48,2,2,.73.73.55.55a2,2,0,0,0,1.25.59h.18a2,2,0,0,0,1.42-.59l2.9-2.9.39-.38,0,0,0,0,0,0,0,0a2,2,0,0,0,.53-1.36V14.07h0V14a.76.76,0,0,0-.75-.76h-3.33v.67h0v3.7h-1.87v.58h1.87v3.73l.59-.59V13.9h1.12v2.65a.41.41,0,0,0-.11.28.41.41,0,0,0,.7.27.41.41,0,0,0,0-.55V13.9h.6a.51.51,0,0,1,.51.51V19h0v.45a1.33,1.33,0,0,1-.35.9s0,0,0,0l0,0,0,0-1.33,1.33-2,2a1.4,1.4,0,0,1-.84.39h-.11a1.38,1.38,0,0,1-1-.39L174,23.4l-.94-.94Zm7.33-3.64a.19.19,0,0,1,.39,0A.19.19,0,0,1,178.44,16.83Z" transform="translate(-22.21 -0.13)"/><path class="cls-1" d="M190.79,32v-.59h-3V28.31l-.3-.29-.29-.3V36.4h3.55v-.59h-3v-.08h0V34.17h2.29a.37.37,0,0,0,.27.11.4.4,0,0,0,.27-.69.38.38,0,0,0-.54,0h-2.29V32Zm-.4,1.66a.19.19,0,0,1,0,.38A.19.19,0,1,1,190.39,33.69Z" transform="translate(-22.21 -0.13)"/><path class="cls-1" d="M190,29.15l.48-.47-2-2-.73-.73-.55-.56a2.05,2.05,0,0,0-1.25-.58h-.18a2,2,0,0,0-1.43.59l-2.9,2.9-.39.39,0,0a.08.08,0,0,0,0,0l0,0,0,0a2,2,0,0,0-.52,1.35v5.36h0v.09a.76.76,0,0,0,.76.76h3.32v-.67h0V32h1.88v-.59h-1.88V27.72l-.58.59v7.42h-1.13V33.07a.37.37,0,0,0,.11-.27.4.4,0,0,0-.69-.27.38.38,0,0,0,0,.54v2.66h-.61a.51.51,0,0,1-.51-.51V30.65h0V30.2a1.32,1.32,0,0,1,.34-.9l0,0,0,0,0,0,1.33-1.33,2-2a1.32,1.32,0,0,1,.84-.39h.11a1.34,1.34,0,0,1,.95.39l.35.35.93.93Zm-7.33,3.65a.19.19,0,0,1-.38,0A.19.19,0,0,1,182.67,32.8Z" transform="translate(-22.21 -0.13)"/><path class="cls-1" d="M169.64,32v-.59h-3V28.31l-.3-.29-.29-.3V36.4h3.55v-.59h-3v-.08h0V34.17H169a.37.37,0,0,0,.27.11.4.4,0,0,0,.27-.69.38.38,0,0,0-.54,0h-2.29V32Zm-.41,1.66a.19.19,0,0,1,0,.38A.19.19,0,0,1,169.23,33.69Z" transform="translate(-22.21 -0.13)"/><path class="cls-1" d="M168.85,29.15l.47-.47-2-2L166.6,26l-.55-.56a2.05,2.05,0,0,0-1.25-.58h-.18a2,2,0,0,0-1.43.59l-2.9,2.9-.39.39,0,0a.08.08,0,0,0,0,0l0,0,0,0a2,2,0,0,0-.52,1.35v5.36h0v.09a.76.76,0,0,0,.76.76h3.32v-.67h0V32h1.88v-.59h-1.88V27.72l-.58.59v7.42h-1.13V33.07a.37.37,0,0,0,.11-.27.4.4,0,0,0-.69-.27.38.38,0,0,0,0,.54v2.66h-.61a.51.51,0,0,1-.51-.51V30.65h0V30.2a1.32,1.32,0,0,1,.34-.9l0,0,0,0,0,0,1.33-1.33,2-2a1.34,1.34,0,0,1,.84-.39h.11a1.34,1.34,0,0,1,.95.39l.35.35.93.93Zm-7.34,3.65a.19.19,0,0,1-.38,0A.19.19,0,0,1,161.51,32.8Z" transform="translate(-22.21 -0.13)"/><path class="cls-1" d="M148.48,32v-.59h-3V28.31l-.3-.29-.29-.3V36.4h3.55v-.59h-3v-.08h0V34.17h2.29a.37.37,0,0,0,.27.11.4.4,0,0,0,.27-.69.38.38,0,0,0-.54,0h-2.29V32Zm-.41,1.66a.19.19,0,0,1,0,.38A.19.19,0,0,1,148.07,33.69Z" transform="translate(-22.21 -0.13)"/><path class="cls-1" d="M147.69,29.15l.47-.47-2-2-.73-.73-.55-.56a2.05,2.05,0,0,0-1.25-.58h-.18a2,2,0,0,0-1.43.59l-2.9,2.9-.38.39,0,0,0,0a.08.08,0,0,0,0,0l0,0a2,2,0,0,0-.52,1.35v5.36h0v.09a.76.76,0,0,0,.76.76h3.33v-.67h0V32H144v-.59h-1.87V27.72l-.59.59v7.42h-1.13V33.07a.37.37,0,0,0,.11-.27.4.4,0,0,0-.69-.27.39.39,0,0,0,0,.54v2.66h-.61a.51.51,0,0,1-.51-.51V30.65h0V30.2a1.32,1.32,0,0,1,.34-.9l0,0,0,0,0,0,1.33-1.33,2-2a1.34,1.34,0,0,1,.84-.39h.11a1.34,1.34,0,0,1,.95.39l.35.35.94.93Zm-7.34,3.65a.19.19,0,0,1-.38,0A.19.19,0,0,1,140.35,32.8Z" transform="translate(-22.21 -0.13)"/><path class="cls-1" d="M127.32,32v-.59h-3V28.31l-.29-.29-.3-.3V36.4h3.55v-.59h-3v-.08h0V34.17h2.29a.39.39,0,0,0,.27.11.4.4,0,0,0,.27-.69.38.38,0,0,0-.54,0h-2.29V32Zm-.41,1.66a.19.19,0,1,1,0,.38A.19.19,0,0,1,126.91,33.69Z" transform="translate(-22.21 -0.13)"/><path class="cls-1" d="M126.53,29.15l.47-.47-2-2-.73-.73-.55-.56a2.05,2.05,0,0,0-1.25-.58h-.18a2,2,0,0,0-1.43.59L118,28.3l-.38.39,0,0s0,0,0,0l0,0,0,0a2,2,0,0,0-.52,1.35v5.36h0v.09a.75.75,0,0,0,.75.76H121v-.67h0V32h1.87v-.59H121V27.72l-.59.59v7.42H119.3V33.07a.41.41,0,0,0,.1-.27.4.4,0,1,0-.69.27v2.66h-.61a.51.51,0,0,1-.51-.51V30.65h0V30.2a1.37,1.37,0,0,1,.34-.9l0,0,0,0,0,0,1.33-1.33,2-2a1.34,1.34,0,0,1,.84-.39h.11a1.34,1.34,0,0,1,1,.39l.35.35.94.93Zm-7.34,3.65a.19.19,0,0,1-.38,0A.19.19,0,0,1,119.19,32.8Z" transform="translate(-22.21 -0.13)"/><path class="cls-1" d="M106.16,32v-.59h-3V28.31L102.9,28l-.3-.3V36.4h3.55v-.59h-3v-.08h0V34.17h2.29a.39.39,0,0,0,.27.11.4.4,0,0,0,.28-.69.39.39,0,0,0-.55,0h-2.29V32Zm-.41,1.66a.19.19,0,1,1,0,.38A.19.19,0,0,1,105.75,33.69Z" transform="translate(-22.21 -0.13)"/><path class="cls-1" d="M105.37,29.15l.47-.47-2-2-.73-.73-.55-.56a2.05,2.05,0,0,0-1.25-.58h-.18a2,2,0,0,0-1.43.59l-2.9,2.9-.38.39,0,0,0,0s0,0,0,0l0,0a2,2,0,0,0-.52,1.35v5.36h0v.09a.75.75,0,0,0,.75.76h3.33v-.67h0V32h1.87v-.59H99.85V27.72l-.59.59v7.42H98.14V33.07a.41.41,0,0,0,.1-.27.4.4,0,1,0-.69.27v2.66h-.61a.51.51,0,0,1-.51-.51V30.65h0V30.2a1.33,1.33,0,0,1,.35-.9s0,0,0,0l0,0,0,0,1.33-1.33,2-2a1.34,1.34,0,0,1,.84-.39h.11a1.34,1.34,0,0,1,1,.39l.35.35.94.93ZM98,32.8a.2.2,0,0,1-.39,0A.2.2,0,0,1,98,32.8Z" transform="translate(-22.21 -0.13)"/><path class="cls-1" d="M85,32v-.59H82V28.31L81.74,28l-.3-.3V36.4H85v-.59H82v-.08h0V34.17h2.29a.39.39,0,0,0,.27.11.4.4,0,0,0,.28-.69.39.39,0,0,0-.55,0H82V32Zm-.41,1.66a.19.19,0,1,1,0,.38A.19.19,0,0,1,84.59,33.69Z" transform="translate(-22.21 -0.13)"/><path class="cls-1" d="M84.21,29.15l.47-.47-2-2L82,26l-.55-.56a2.05,2.05,0,0,0-1.25-.58H80a2,2,0,0,0-1.42.59l-2.91,2.9-.38.39,0,0,0,0s0,0,0,0l0,0a2,2,0,0,0-.52,1.35v5.36h0v.09a.76.76,0,0,0,.75.76h3.33v-.67h0V32h1.87v-.59H78.69V27.72l-.59.59v7.42H77V33.07a.41.41,0,0,0,.11-.27.4.4,0,0,0-.7-.27.4.4,0,0,0,0,.54v2.66h-.61a.51.51,0,0,1-.51-.51V30.65h0V30.2a1.33,1.33,0,0,1,.35-.9s0,0,0,0l0,0,0,0L77,27.87l2-2a1.34,1.34,0,0,1,.84-.39H80a1.34,1.34,0,0,1,1,.39l.35.35.94.93ZM76.88,32.8a.2.2,0,0,1-.39,0A.2.2,0,0,1,76.88,32.8Z" transform="translate(-22.21 -0.13)"/><path class="cls-1" d="M63.84,32v-.59h-3V28.31L60.58,28l-.3-.3V36.4h3.55v-.59h-3v-.08h0V34.17h2.29a.39.39,0,0,0,.27.11.4.4,0,0,0,.28-.69.39.39,0,0,0-.55,0H60.87V32Zm-.41,1.66a.19.19,0,1,1,0,.38A.19.19,0,0,1,63.43,33.69Z" transform="translate(-22.21 -0.13)"/><path class="cls-1" d="M63.05,29.15l.47-.47-2-2L60.8,26l-.55-.56A2,2,0,0,0,59,24.82h-.18a2,2,0,0,0-1.42.59l-2.9,2.9-.39.39,0,0s0,0,0,0,0,0,0,0l0,0a2,2,0,0,0-.53,1.35v5.36h0v.09a.76.76,0,0,0,.75.76h3.33v-.67h0V32H59.4v-.59H57.53V27.72l-.59.59v7.42H55.82V33.07a.41.41,0,0,0,.11-.27.4.4,0,0,0-.7-.27.4.4,0,0,0,0,.54v2.66h-.6a.51.51,0,0,1-.51-.51V30.65h0V30.2a1.33,1.33,0,0,1,.35-.9s0,0,0,0l0,0,0,0,1.33-1.33,2-2a1.34,1.34,0,0,1,.84-.39h.11a1.34,1.34,0,0,1,1,.39l.35.35.94.93ZM55.72,32.8a.2.2,0,0,1-.39,0A.2.2,0,0,1,55.72,32.8Z" transform="translate(-22.21 -0.13)"/><path class="cls-1" d="M42.68,32v-.59h-3V28.31L39.42,28l-.3-.3V36.4h3.56v-.59h-3v-.08h0V34.17H42a.39.39,0,0,0,.27.11.4.4,0,0,0,.28-.69.39.39,0,0,0-.55,0H39.71V32Zm-.41,1.66a.19.19,0,1,1,0,.38A.19.19,0,0,1,42.27,33.69Z" transform="translate(-22.21 -0.13)"/><path class="cls-1" d="M41.89,29.15l.47-.47-2-2L39.64,26l-.55-.56a2,2,0,0,0-1.25-.58h-.18a2,2,0,0,0-1.42.59l-2.9,2.9-.39.39,0,0,0,0,0,0,0,0a2,2,0,0,0-.53,1.35v5.36h0v.09a.76.76,0,0,0,.75.76h3.33v-.67h0V32h1.87v-.59H36.37V27.72l-.59.59v7.42H34.66V33.07a.37.37,0,0,0,.11-.27.4.4,0,0,0-.7-.27.4.4,0,0,0,0,.54v2.66h-.6a.51.51,0,0,1-.51-.51V30.65h0V30.2a1.33,1.33,0,0,1,.35-.9s0,0,0,0l0,0,0,0,1.33-1.33,2-2a1.34,1.34,0,0,1,.84-.39h.11a1.38,1.38,0,0,1,1,.39l.34.35.94.93ZM34.56,32.8a.2.2,0,0,1-.39,0A.2.2,0,0,1,34.56,32.8Z" transform="translate(-22.21 -0.13)"/><path class="cls-1" d="M22.21,42.28v.59h3V46l.3.3.29.29V37.91H22.21v.59h3v.09h0v1.55H22.88a.41.41,0,0,0-.27-.11.4.4,0,0,0-.27.7.4.4,0,0,0,.54,0h2.29v1.55Zm.4-1.65a.2.2,0,0,1,0-.39A.2.2,0,0,1,22.61,40.63Z" transform="translate(-22.21 -0.13)"/><path class="cls-1" d="M23,45.16l-.48.47,2,2,.73.74.55.55a2,2,0,0,0,1.25.58h.18a2,2,0,0,0,1.43-.59l2.9-2.9.39-.39,0,0,0,0,0,0,0,0a2,2,0,0,0,.52-1.36V38.76h0v-.09a.77.77,0,0,0-.76-.76H28.52v.68h0v3.69H26.64v.59h1.88v3.72L29.1,46V38.59h1.13v2.65a.39.39,0,0,0-.11.27.4.4,0,0,0,.69.28.39.39,0,0,0,0-.55V38.59h.61a.51.51,0,0,1,.51.51v4.57h0v.45a1.34,1.34,0,0,1-.34.9l0,0,0,0,0,0-1.33,1.33-2,2a1.27,1.27,0,0,1-.84.39h-.11a1.31,1.31,0,0,1-.95-.4l-.35-.35L25,47.15Zm7.33-3.65a.19.19,0,0,1,.38,0A.19.19,0,1,1,30.33,41.51Z" transform="translate(-22.21 -0.13)"/><path class="cls-1" d="M43.36,42.28v.59h3V46l.3.3.29.29V37.91H43.37v.59h3v.09h0v1.55H44a.41.41,0,0,0-.27-.11.4.4,0,0,0-.27.7.4.4,0,0,0,.54,0h2.29v1.55Zm.41-1.65a.2.2,0,0,1,0-.39A.2.2,0,0,1,43.77,40.63Z" transform="translate(-22.21 -0.13)"/><path class="cls-1" d="M44.15,45.16l-.47.47,2,2,.73.74.55.55a2,2,0,0,0,1.25.58h.18a2,2,0,0,0,1.43-.59l2.9-2.9.39-.39,0,0,0,0,0,0,0,0a2,2,0,0,0,.52-1.36V38.76h0v-.09a.77.77,0,0,0-.76-.76H49.68v.68h0v3.69H47.8v.59h1.88v3.72l.58-.59V38.59h1.13v2.65a.39.39,0,0,0-.11.27.4.4,0,0,0,.69.28.39.39,0,0,0,0-.55V38.59h.61a.51.51,0,0,1,.51.51v4.57h0v.45a1.34,1.34,0,0,1-.34.9l0,0,0,0,0,0-1.33,1.33-2,2a1.29,1.29,0,0,1-.84.39h-.11a1.31,1.31,0,0,1-1-.4l-.35-.35-.93-.93Zm7.34-3.65a.19.19,0,0,1,.38,0A.19.19,0,1,1,51.49,41.51Z" transform="translate(-22.21 -0.13)"/><path class="cls-1" d="M64.52,42.28v.59h3V46l.3.3.29.29V37.91H64.53v.59h3v.09h0v1.55H65.2a.41.41,0,0,0-.27-.11.4.4,0,0,0-.27.7.4.4,0,0,0,.54,0h2.29v1.55Zm.41-1.65a.2.2,0,0,1,0-.39A.2.2,0,0,1,64.93,40.63Z" transform="translate(-22.21 -0.13)"/><path class="cls-1" d="M65.31,45.16l-.47.47,2,2,.73.74.55.55a2,2,0,0,0,1.25.58h.18A2,2,0,0,0,71,48.91l2.9-2.9.38-.39,0,0s0,0,0,0l0,0,0,0a2,2,0,0,0,.52-1.36V38.76h0v-.09a.77.77,0,0,0-.76-.76H70.83v.68h0v3.69H69v.59h1.87v3.72l.59-.59V38.59h1.13v2.65a.39.39,0,0,0-.11.27.4.4,0,1,0,.69-.27V38.59h.61a.51.51,0,0,1,.51.51v4.57h0v.45a1.34,1.34,0,0,1-.34.9l0,0,0,0,0,0-1.33,1.33-2,2a1.29,1.29,0,0,1-.84.39h-.11a1.31,1.31,0,0,1-1-.4l-.35-.35-.94-.93Zm7.34-3.65a.19.19,0,0,1,.38,0A.19.19,0,1,1,72.65,41.51Z" transform="translate(-22.21 -0.13)"/><path class="cls-1" d="M85.68,42.28v.59h3V46l.29.3.3.29V37.91H85.69v.59h3v.09h0v1.55H86.36a.44.44,0,0,0-.27-.11.4.4,0,0,0-.27.7.4.4,0,0,0,.54,0h2.29v1.55Zm.41-1.65a.2.2,0,0,1,0-.39A.2.2,0,0,1,86.09,40.63Z" transform="translate(-22.21 -0.13)"/><path class="cls-1" d="M86.47,45.16l-.47.47,2,2,.73.74.55.55a2,2,0,0,0,1.25.58h.18a2,2,0,0,0,1.43-.59L95,46l.38-.39,0,0s0,0,0,0l0,0,0,0a2,2,0,0,0,.52-1.36V38.76h0v-.09a.76.76,0,0,0-.75-.76H92v.68h0v3.69H90.12v.59H92v3.72l.59-.59V38.59H93.7v2.65a.43.43,0,0,0-.1.27.4.4,0,0,0,.69.28.41.41,0,0,0,0-.55V38.59h.61a.51.51,0,0,1,.51.51v4.57h0v.45a1.39,1.39,0,0,1-.34.9l0,0,0,0,0,0-1.33,1.33-2,2a1.29,1.29,0,0,1-.84.39H90.7a1.31,1.31,0,0,1-1-.4l-.35-.35-.94-.93Zm7.34-3.65a.19.19,0,0,1,.38,0A.19.19,0,1,1,93.81,41.51Z" transform="translate(-22.21 -0.13)"/><path class="cls-1" d="M106.84,42.28v.59h3V46l.29.3.3.29V37.91h-3.55v.59h3v.09h0v1.55h-2.29a.44.44,0,0,0-.27-.11.4.4,0,1,0,.27.7h2.29v1.55Zm.41-1.65a.19.19,0,0,1,0-.39A.19.19,0,0,1,107.25,40.63Z" transform="translate(-22.21 -0.13)"/><path class="cls-1" d="M107.63,45.16l-.47.47,2,2,.73.74.55.55a2,2,0,0,0,1.25.58h.18a2,2,0,0,0,1.43-.59l2.9-2.9.38-.39,0,0,0,0s0,0,0,0l0,0a2.08,2.08,0,0,0,.52-1.36V38.76h0v-.09a.76.76,0,0,0-.75-.76h-3.33v.68h0v3.69h-1.87v.59h1.87v3.72l.59-.59V38.59h1.12v2.65a.43.43,0,0,0-.1.27.4.4,0,0,0,.69.28.41.41,0,0,0,0-.55V38.59h.61a.51.51,0,0,1,.51.51v4.57h0v.45a1.35,1.35,0,0,1-.35.9l0,0,0,0,0,0-1.33,1.33-2,2a1.29,1.29,0,0,1-.84.39h-.11a1.31,1.31,0,0,1-1-.4l-.35-.35-.94-.93ZM115,41.51a.2.2,0,0,1,.39,0A.2.2,0,1,1,115,41.51Z" transform="translate(-22.21 -0.13)"/><path class="cls-1" d="M128,42.28v.59h3V46l.29.3.3.29V37.91H128v.59h3v.09h0v1.55h-2.29a.44.44,0,0,0-.27-.11.41.41,0,0,0-.28.7.41.41,0,0,0,.55,0H131v1.55Zm.41-1.65a.2.2,0,1,1,0-.39A.2.2,0,0,1,128.41,40.63Z" transform="translate(-22.21 -0.13)"/><path class="cls-1" d="M128.79,45.16l-.47.47,2,2,.73.74.55.55a2,2,0,0,0,1.25.58H133a2,2,0,0,0,1.42-.59l2.91-2.9.38-.39,0,0s0,0,0,0,0,0,0,0l0,0a2.08,2.08,0,0,0,.52-1.36V38.76h0v-.09a.77.77,0,0,0-.75-.76h-3.33v.68h0v3.69h-1.87v.59h1.87v3.72l.59-.59V38.59H136v2.65a.44.44,0,0,0-.11.27.41.41,0,0,0,.7.28.41.41,0,0,0,0-.55V38.59h.61a.51.51,0,0,1,.51.51v4.57h0v.45a1.35,1.35,0,0,1-.35.9l0,0,0,0,0,0L136,46.44l-2,2a1.29,1.29,0,0,1-.84.39H133a1.31,1.31,0,0,1-1-.4l-.35-.35-.94-.93Zm7.33-3.65a.2.2,0,0,1,.39,0A.2.2,0,0,1,136.12,41.51Z" transform="translate(-22.21 -0.13)"/><path class="cls-1" d="M149.16,42.28v.59h3V46l.29.3.3.29V37.91h-3.55v.59h3v.09h0v1.55h-2.29a.44.44,0,0,0-.27-.11.41.41,0,0,0-.28.7.41.41,0,0,0,.55,0h2.29v1.55Zm.41-1.65a.2.2,0,1,1,0-.39A.2.2,0,0,1,149.57,40.63Z" transform="translate(-22.21 -0.13)"/><path class="cls-1" d="M150,45.16l-.47.47,2,2,.73.74.55.55a2,2,0,0,0,1.25.58h.18a2,2,0,0,0,1.42-.59l2.9-2.9.39-.39,0,0s0,0,0,0,0,0,0,0l0,0a2,2,0,0,0,.53-1.36V38.76h0v-.09a.77.77,0,0,0-.75-.76h-3.33v.68h0v3.69H153.6v.59h1.87v3.72l.59-.59V38.59h1.12v2.65a.44.44,0,0,0-.11.27.41.41,0,0,0,.7.28.41.41,0,0,0,0-.55V38.59h.6a.51.51,0,0,1,.51.51v4.57h0v.45a1.35,1.35,0,0,1-.35.9l0,0,0,0,0,0-1.33,1.33-2,2a1.29,1.29,0,0,1-.84.39h-.11a1.31,1.31,0,0,1-1-.4l-.35-.35-.94-.93Zm7.33-3.65a.2.2,0,0,1,.39,0A.2.2,0,0,1,157.28,41.51Z" transform="translate(-22.21 -0.13)"/><path class="cls-1" d="M170.32,42.28v.59h3V46l.29.3.3.29V37.91h-3.56v.59h3v.09h0v1.55H171a.44.44,0,0,0-.27-.11.41.41,0,0,0-.28.7.41.41,0,0,0,.55,0h2.29v1.55Zm.41-1.65a.2.2,0,1,1,0-.39A.2.2,0,0,1,170.73,40.63Z" transform="translate(-22.21 -0.13)"/><path class="cls-1" d="M171.11,45.16l-.47.47,2,2,.73.74.55.55a2,2,0,0,0,1.25.58h.18a2,2,0,0,0,1.42-.59l2.9-2.9.39-.39,0,0a568665327876.22,568665327876.22,0,0,1,.08-.08l0,0a2,2,0,0,0,.53-1.36V38.76h0v-.09a.77.77,0,0,0-.75-.76h-3.33v.68h0v3.69h-1.87v.59h1.87v3.72l.59-.59V38.59h1.12v2.65a.39.39,0,0,0-.11.27.41.41,0,0,0,.7.28.41.41,0,0,0,0-.55V38.59h.6a.51.51,0,0,1,.51.51v4.57h0v.45a1.35,1.35,0,0,1-.35.9l0,0,0,0,0,0-1.33,1.33-2,2a1.29,1.29,0,0,1-.84.39h-.11a1.35,1.35,0,0,1-1-.4l-.34-.35-.94-.93Zm7.33-3.65a.2.2,0,0,1,.39,0A.2.2,0,0,1,178.44,41.51Z" transform="translate(-22.21 -0.13)"/><path class="cls-1" d="M190.79,56.72v-.59h-3V53l-.3-.3-.29-.29v8.68h3.55V60.5h-3v-.09h0V58.86h2.29a.41.41,0,0,0,.27.11.4.4,0,0,0,.27-.7.4.4,0,0,0-.54,0h-2.29V56.72Zm-.4,1.65a.2.2,0,0,1,0,.39A.2.2,0,0,1,190.39,58.37Z" transform="translate(-22.21 -0.13)"/><path class="cls-1" d="M190,53.84l.48-.47-2-2-.73-.74-.55-.55a2,2,0,0,0-1.25-.58h-.18a2,2,0,0,0-1.43.59l-2.9,2.9-.39.39,0,0,0,0,0,0,0,0a2,2,0,0,0-.52,1.36v5.36h0v.09a.77.77,0,0,0,.76.76h3.32v-.68h0V56.72h1.88v-.59h-1.88V52.41l-.58.59v7.41h-1.13V57.76a.39.39,0,0,0,.11-.27.4.4,0,0,0-.69-.28.39.39,0,0,0,0,.55v2.65h-.61a.51.51,0,0,1-.51-.51V55.33h0v-.45a1.34,1.34,0,0,1,.34-.9l0,0,0,0,0,0,1.33-1.33,2-2a1.27,1.27,0,0,1,.84-.39h.11a1.31,1.31,0,0,1,.95.4l.35.35.93.93Zm-7.33,3.65a.19.19,0,0,1-.38,0A.19.19,0,1,1,182.67,57.49Z" transform="translate(-22.21 -0.13)"/><path class="cls-1" d="M169.64,56.72v-.59h-3V53l-.3-.3-.29-.29v8.68h3.55V60.5h-3v-.09h0V58.86H169a.41.41,0,0,0,.27.11.4.4,0,0,0,.27-.7.4.4,0,0,0-.54,0h-2.29V56.72Zm-.41,1.65a.2.2,0,0,1,0,.39A.2.2,0,0,1,169.23,58.37Z" transform="translate(-22.21 -0.13)"/><path class="cls-1" d="M168.85,53.84l.47-.47-2-2-.73-.74-.55-.55a2,2,0,0,0-1.25-.58h-.18a2,2,0,0,0-1.43.59l-2.9,2.9-.39.39,0,0,0,0,0,0,0,0a2,2,0,0,0-.52,1.36v5.36h0v.09a.77.77,0,0,0,.76.76h3.32v-.68h0V56.72h1.88v-.59h-1.88V52.41l-.58.59v7.41h-1.13V57.76a.39.39,0,0,0,.11-.27.4.4,0,0,0-.69-.28.39.39,0,0,0,0,.55v2.65h-.61a.51.51,0,0,1-.51-.51V55.33h0v-.45a1.34,1.34,0,0,1,.34-.9l0,0,0,0,0,0,1.33-1.33,2-2a1.29,1.29,0,0,1,.84-.39h.11a1.31,1.31,0,0,1,.95.4l.35.35.93.93Zm-7.34,3.65a.19.19,0,0,1-.38,0A.19.19,0,1,1,161.51,57.49Z" transform="translate(-22.21 -0.13)"/><path class="cls-1" d="M148.48,56.72v-.59h-3V53l-.3-.3-.29-.29v8.68h3.55V60.5h-3v-.09h0V58.86h2.29a.41.41,0,0,0,.27.11.4.4,0,0,0,.27-.7.4.4,0,0,0-.54,0h-2.29V56.72Zm-.41,1.65a.2.2,0,0,1,0,.39A.2.2,0,0,1,148.07,58.37Z" transform="translate(-22.21 -0.13)"/><path class="cls-1" d="M147.69,53.84l.47-.47-2-2-.73-.74-.55-.55a2,2,0,0,0-1.25-.58h-.18a2,2,0,0,0-1.43.59l-2.9,2.9-.38.39,0,0,0,0,0,0,0,0a2,2,0,0,0-.52,1.36v5.36h0v.09a.77.77,0,0,0,.76.76h3.33v-.68h0V56.72H144v-.59h-1.87V52.41l-.59.59v7.41h-1.13V57.76a.39.39,0,0,0,.11-.27.4.4,0,1,0-.69.27v2.65h-.61a.51.51,0,0,1-.51-.51V55.33h0v-.45a1.34,1.34,0,0,1,.34-.9l0,0,0,0,0,0,1.33-1.33,2-2a1.29,1.29,0,0,1,.84-.39h.11a1.31,1.31,0,0,1,.95.4l.35.35.94.93Zm-7.34,3.65a.19.19,0,0,1-.38,0A.19.19,0,1,1,140.35,57.49Z" transform="translate(-22.21 -0.13)"/><path class="cls-1" d="M127.32,56.72v-.59h-3V53l-.29-.3-.3-.29v8.68h3.55V60.5h-3v-.09h0V58.86h2.29a.44.44,0,0,0,.27.11.4.4,0,0,0,.27-.7.4.4,0,0,0-.54,0h-2.29V56.72Zm-.41,1.65a.2.2,0,0,1,0,.39A.2.2,0,0,1,126.91,58.37Z" transform="translate(-22.21 -0.13)"/><path class="cls-1" d="M126.53,53.84l.47-.47-2-2-.73-.74-.55-.55a2,2,0,0,0-1.25-.58h-.18a2,2,0,0,0-1.43.59L118,53l-.38.39,0,0s0,0,0,0l0,0,0,0a2,2,0,0,0-.52,1.36v5.36h0v.09a.76.76,0,0,0,.75.76H121v-.68h0V56.72h1.87v-.59H121V52.41l-.59.59v7.41H119.3V57.76a.43.43,0,0,0,.1-.27.4.4,0,0,0-.69-.28.41.41,0,0,0,0,.55v2.65h-.61a.51.51,0,0,1-.51-.51V55.33h0v-.45a1.39,1.39,0,0,1,.34-.9l0,0,0,0,0,0,1.33-1.33,2-2a1.29,1.29,0,0,1,.84-.39h.11a1.31,1.31,0,0,1,1,.4l.35.35.94.93Zm-7.34,3.65a.19.19,0,0,1-.38,0A.19.19,0,1,1,119.19,57.49Z" transform="translate(-22.21 -0.13)"/><path class="cls-1" d="M106.16,56.72v-.59h-3V53l-.29-.3-.3-.29v8.68h3.55V60.5h-3v-.09h0V58.86h2.29a.44.44,0,0,0,.27.11.4.4,0,1,0-.27-.7h-2.29V56.72Zm-.41,1.65a.2.2,0,1,1,0,.39A.2.2,0,0,1,105.75,58.37Z" transform="translate(-22.21 -0.13)"/><path class="cls-1" d="M105.37,53.84l.47-.47-2-2-.73-.74-.55-.55a2,2,0,0,0-1.25-.58h-.18a2,2,0,0,0-1.43.59L96.81,53l-.38.39,0,0,0,0s0,0,0,0l0,0a2.08,2.08,0,0,0-.52,1.36v5.36h0v.09a.76.76,0,0,0,.75.76h3.33v-.68h0V56.72h1.87v-.59H99.85V52.41l-.59.59v7.41H98.14V57.76a.43.43,0,0,0,.1-.27.4.4,0,0,0-.69-.28.41.41,0,0,0,0,.55v2.65h-.61a.51.51,0,0,1-.51-.51V55.33h0v-.45a1.35,1.35,0,0,1,.35-.9l0,0,0,0,0,0,1.33-1.33,2-2a1.29,1.29,0,0,1,.84-.39h.11a1.31,1.31,0,0,1,1,.4l.35.35.94.93ZM98,57.49a.2.2,0,0,1-.39,0A.2.2,0,0,1,98,57.49Z" transform="translate(-22.21 -0.13)"/><path class="cls-1" d="M85,56.72v-.59H82V53l-.29-.3-.3-.29v8.68H85V60.5H82v-.09h0V58.86h2.29a.44.44,0,0,0,.27.11.41.41,0,0,0,.28-.7.41.41,0,0,0-.55,0H82V56.72Zm-.41,1.65a.19.19,0,0,1,0,.39A.19.19,0,0,1,84.59,58.37Z" transform="translate(-22.21 -0.13)"/><path class="cls-1" d="M84.21,53.84l.47-.47-2-2L82,50.64l-.55-.55a2,2,0,0,0-1.25-.58H80a2,2,0,0,0-1.42.59L75.65,53l-.38.39,0,0,0,0s0,0,0,0l0,0a2.08,2.08,0,0,0-.52,1.36v5.36h0v.09a.77.77,0,0,0,.75.76h3.33v-.68h0V56.72h1.87v-.59H78.69V52.41L78.1,53v7.41H77V57.76a.44.44,0,0,0,.11-.27.41.41,0,0,0-.7-.28.41.41,0,0,0,0,.55v2.65h-.61a.51.51,0,0,1-.51-.51V55.33h0v-.45a1.35,1.35,0,0,1,.35-.9l0,0,0,0,0,0L77,52.56l2-2a1.29,1.29,0,0,1,.84-.39H80a1.31,1.31,0,0,1,1,.4l.35.35.94.93Zm-7.33,3.65a.2.2,0,0,1-.39,0A.2.2,0,0,1,76.88,57.49Z" transform="translate(-22.21 -0.13)"/><path class="cls-1" d="M63.84,56.72v-.59h-3V53l-.29-.3-.3-.29v8.68h3.55V60.5h-3v-.09h0V58.86h2.29a.44.44,0,0,0,.27.11.41.41,0,0,0,.28-.7.41.41,0,0,0-.55,0H60.87V56.72Zm-.41,1.65a.2.2,0,1,1,0,.39A.2.2,0,0,1,63.43,58.37Z" transform="translate(-22.21 -0.13)"/><path class="cls-1" d="M63.05,53.84l.47-.47-2-2-.73-.74-.55-.55A2,2,0,0,0,59,49.51h-.18a2,2,0,0,0-1.42.59L54.5,53l-.39.39,0,0s0,0,0,0l0,0,0,0a2,2,0,0,0-.53,1.36v5.36h0v.09a.77.77,0,0,0,.75.76h3.33v-.68h0V56.72H59.4v-.59H57.53V52.41l-.59.59v7.41H55.82V57.76a.44.44,0,0,0,.11-.27.41.41,0,0,0-.7-.28.41.41,0,0,0,0,.55v2.65h-.6a.51.51,0,0,1-.51-.51V55.33h0v-.45a1.35,1.35,0,0,1,.35-.9l0,0,0,0,0,0,1.33-1.33,2-2a1.29,1.29,0,0,1,.84-.39h.11a1.31,1.31,0,0,1,1,.4l.35.35.94.93Zm-7.33,3.65a.2.2,0,0,1-.39,0A.2.2,0,0,1,55.72,57.49Z" transform="translate(-22.21 -0.13)"/><path class="cls-1" d="M42.68,56.72v-.59h-3V53l-.29-.3-.3-.29v8.68h3.56V60.5h-3v-.09h0V58.86H42a.44.44,0,0,0,.27.11.41.41,0,0,0,.28-.7.41.41,0,0,0-.55,0H39.71V56.72Zm-.41,1.65a.2.2,0,1,1,0,.39A.2.2,0,0,1,42.27,58.37Z" transform="translate(-22.21 -0.13)"/><path class="cls-1" d="M41.89,53.84l.47-.47-2-2-.73-.74-.55-.55a2,2,0,0,0-1.25-.58h-.18a2,2,0,0,0-1.42.59L33.34,53l-.39.39,0,0a.08.08,0,0,1,0,0l0,0,0,0a2,2,0,0,0-.53,1.36v5.36h0v.09a.77.77,0,0,0,.75.76h3.33v-.68h0V56.72h1.87v-.59H36.37V52.41l-.59.59v7.41H34.66V57.76a.39.39,0,0,0,.11-.27.41.41,0,0,0-.7-.28.41.41,0,0,0,0,.55v2.65h-.6A.51.51,0,0,1,33,59.9V55.33h0v-.45a1.35,1.35,0,0,1,.35-.9l0,0,0,0,0,0,1.33-1.33,2-2a1.29,1.29,0,0,1,.84-.39h.11a1.35,1.35,0,0,1,1,.4l.34.35.94.93Zm-7.33,3.65a.2.2,0,0,1-.39,0A.2.2,0,0,1,34.56,57.49Z" transform="translate(-22.21 -0.13)"/><path class="cls-1" d="M22.21,67v.59h3v3.13l.3.29.29.3V62.6H22.21v.59h3v.08h0v1.56H22.88a.37.37,0,0,0-.27-.11.4.4,0,0,0-.27.69.38.38,0,0,0,.54,0h2.29V67Zm.4-1.66a.19.19,0,0,1,0-.38A.19.19,0,1,1,22.61,65.31Z" transform="translate(-22.21 -0.13)"/><path class="cls-1" d="M23,69.85l-.48.47,2,2,.73.73.55.56a2.05,2.05,0,0,0,1.25.58h.18a2,2,0,0,0,1.43-.59l2.9-2.9.39-.39,0,0a318452583626.27,318452583626.27,0,0,0,.08-.08l0,0a2,2,0,0,0,.52-1.35V63.45h0v-.09a.76.76,0,0,0-.76-.76H28.52v.67h0V67H26.64v.59h1.88v3.72l.58-.59V63.27h1.13v2.66a.37.37,0,0,0-.11.27.4.4,0,0,0,.69.27.38.38,0,0,0,0-.54V63.27h.61a.51.51,0,0,1,.51.51v4.57h0v.45a1.32,1.32,0,0,1-.34.9s0,0,0,0l0,0,0,0-1.33,1.33-2,2a1.32,1.32,0,0,1-.84.39h-.11a1.34,1.34,0,0,1-.95-.39l-.35-.35L25,71.84Zm7.33-3.65a.19.19,0,0,1,.38,0A.19.19,0,0,1,30.33,66.2Z" transform="translate(-22.21 -0.13)"/><path class="cls-1" d="M43.36,67v.59h3v3.13l.3.29.29.3V62.6H43.37v.59h3v.08h0v1.56H44a.37.37,0,0,0-.27-.11.4.4,0,0,0-.27.69.38.38,0,0,0,.54,0h2.29V67Zm.41-1.66a.19.19,0,0,1,0-.38A.19.19,0,0,1,43.77,65.31Z" transform="translate(-22.21 -0.13)"/><path class="cls-1" d="M44.15,69.85l-.47.47,2,2,.73.73.55.56a2.05,2.05,0,0,0,1.25.58h.18a2,2,0,0,0,1.43-.59l2.9-2.9.39-.39,0,0a.08.08,0,0,0,0,0l0,0,0,0a2,2,0,0,0,.52-1.35V63.45h0v-.09A.76.76,0,0,0,53,62.6H49.68v.67h0V67H47.8v.59h1.88v3.72l.58-.59V63.27h1.13v2.66a.37.37,0,0,0-.11.27.4.4,0,0,0,.69.27.38.38,0,0,0,0-.54V63.27h.61a.51.51,0,0,1,.51.51v4.57h0v.45a1.32,1.32,0,0,1-.34.9s0,0,0,0l0,0,0,0-1.33,1.33-2,2a1.34,1.34,0,0,1-.84.39h-.11a1.34,1.34,0,0,1-1-.39l-.35-.35-.93-.93Zm7.34-3.65a.19.19,0,0,1,.38,0A.19.19,0,0,1,51.49,66.2Z" transform="translate(-22.21 -0.13)"/><path class="cls-1" d="M64.52,67v.59h3v3.13l.3.29.29.3V62.6H64.53v.59h3v.08h0v1.56H65.2a.37.37,0,0,0-.27-.11.4.4,0,0,0-.27.69.38.38,0,0,0,.54,0h2.29V67Zm.41-1.66a.19.19,0,0,1,0-.38A.19.19,0,0,1,64.93,65.31Z" transform="translate(-22.21 -0.13)"/><path class="cls-1" d="M65.31,69.85l-.47.47,2,2,.73.73.55.56a2.05,2.05,0,0,0,1.25.58h.18A2,2,0,0,0,71,73.6l2.9-2.9.38-.39,0,0,0,0,0,0,0,0a2,2,0,0,0,.52-1.35V63.45h0v-.09a.76.76,0,0,0-.76-.76H70.83v.67h0V67H69v.59h1.87v3.72l.59-.59V63.27h1.13v2.66a.37.37,0,0,0-.11.27.4.4,0,0,0,.69.27.39.39,0,0,0,0-.54V63.27h.61a.51.51,0,0,1,.51.51v4.57h0v.45a1.32,1.32,0,0,1-.34.9s0,0,0,0l0,0,0,0-1.33,1.33-2,2a1.34,1.34,0,0,1-.84.39h-.11a1.34,1.34,0,0,1-1-.39l-.35-.35-.94-.93Zm7.34-3.65a.19.19,0,0,1,.38,0A.19.19,0,0,1,72.65,66.2Z" transform="translate(-22.21 -0.13)"/><path class="cls-1" d="M85.68,67v.59h3v3.13l.29.29.3.3V62.6H85.69v.59h3v.08h0v1.56H86.36a.39.39,0,0,0-.27-.11.4.4,0,0,0-.27.69.38.38,0,0,0,.54,0h2.29V67Zm.41-1.66a.19.19,0,1,1,0-.38A.19.19,0,0,1,86.09,65.31Z" transform="translate(-22.21 -0.13)"/><path class="cls-1" d="M86.47,69.85l-.47.47,2,2,.73.73.55.56a2.05,2.05,0,0,0,1.25.58h.18a2,2,0,0,0,1.43-.59L95,70.7l.38-.39,0,0s0,0,0,0l0,0,0,0a2,2,0,0,0,.52-1.35V63.45h0v-.09a.75.75,0,0,0-.75-.76H92v.67h0V67H90.12v.59H92v3.72l.59-.59V63.27H93.7v2.66a.41.41,0,0,0-.1.27.4.4,0,1,0,.69-.27V63.27h.61a.51.51,0,0,1,.51.51v4.57h0v.45a1.37,1.37,0,0,1-.34.9l0,0,0,0,0,0-1.33,1.33-2,2a1.34,1.34,0,0,1-.84.39H90.7a1.34,1.34,0,0,1-1-.39l-.35-.35-.94-.93Zm7.34-3.65a.19.19,0,0,1,.38,0A.19.19,0,0,1,93.81,66.2Z" transform="translate(-22.21 -0.13)"/><path class="cls-1" d="M106.84,67v.59h3v3.13l.29.29.3.3V62.6h-3.55v.59h3v.08h0v1.56h-2.29a.39.39,0,0,0-.27-.11.4.4,0,0,0-.28.69.39.39,0,0,0,.55,0h2.29V67Zm.41-1.66a.19.19,0,1,1,0-.38A.19.19,0,0,1,107.25,65.31Z" transform="translate(-22.21 -0.13)"/><path class="cls-1" d="M107.63,69.85l-.47.47,2,2,.73.73.55.56a2.05,2.05,0,0,0,1.25.58h.18a2,2,0,0,0,1.43-.59l2.9-2.9.38-.39,0,0,0,0s0,0,0,0l0,0a2,2,0,0,0,.52-1.35V63.45h0v-.09a.75.75,0,0,0-.75-.76h-3.33v.67h0V67h-1.87v.59h1.87v3.72l.59-.59V63.27h1.12v2.66a.41.41,0,0,0-.1.27.4.4,0,1,0,.69-.27V63.27h.61a.51.51,0,0,1,.51.51v4.57h0v.45a1.33,1.33,0,0,1-.35.9s0,0,0,0l0,0,0,0-1.33,1.33-2,2a1.34,1.34,0,0,1-.84.39h-.11a1.34,1.34,0,0,1-1-.39l-.35-.35-.94-.93ZM115,66.2a.2.2,0,0,1,.39,0A.2.2,0,0,1,115,66.2Z" transform="translate(-22.21 -0.13)"/><path class="cls-1" d="M128,67v.59h3v3.13l.29.29.3.3V62.6H128v.59h3v.08h0v1.56h-2.29a.39.39,0,0,0-.27-.11.4.4,0,0,0-.28.69.39.39,0,0,0,.55,0H131V67Zm.41-1.66a.19.19,0,1,1,0-.38A.19.19,0,0,1,128.41,65.31Z" transform="translate(-22.21 -0.13)"/><path class="cls-1" d="M128.79,69.85l-.47.47,2,2L131,73l.55.56a2.05,2.05,0,0,0,1.25.58H133a2,2,0,0,0,1.42-.59l2.91-2.9.38-.39,0,0s0,0,0,0,0,0,0,0l0,0a2,2,0,0,0,.52-1.35V63.45h0v-.09a.76.76,0,0,0-.75-.76h-3.33v.67h0V67h-1.87v.59h1.87v3.72l.59-.59V63.27H136v2.66a.41.41,0,0,0-.11.27.4.4,0,0,0,.7.27.4.4,0,0,0,0-.54V63.27h.61a.51.51,0,0,1,.51.51v4.57h0v.45a1.33,1.33,0,0,1-.35.9s0,0,0,0l0,0,0,0L136,71.13l-2,2a1.34,1.34,0,0,1-.84.39H133a1.34,1.34,0,0,1-1-.39l-.35-.35-.94-.93Zm7.33-3.65a.2.2,0,0,1,.39,0A.2.2,0,0,1,136.12,66.2Z" transform="translate(-22.21 -0.13)"/><path class="cls-1" d="M149.16,67v.59h3v3.13l.29.29.3.3V62.6h-3.55v.59h3v.08h0v1.56h-2.29a.39.39,0,0,0-.27-.11.4.4,0,0,0-.28.69.39.39,0,0,0,.55,0h2.29V67Zm.41-1.66a.19.19,0,1,1,0-.38A.19.19,0,0,1,149.57,65.31Z" transform="translate(-22.21 -0.13)"/><path class="cls-1" d="M150,69.85l-.47.47,2,2,.73.73.55.56a2,2,0,0,0,1.25.58h.18a2,2,0,0,0,1.42-.59l2.9-2.9.39-.39,0,0s0,0,0,0,0,0,0,0l0,0a2,2,0,0,0,.53-1.35V63.45h0v-.09a.76.76,0,0,0-.75-.76h-3.33v.67h0V67H153.6v.59h1.87v3.72l.59-.59V63.27h1.12v2.66a.41.41,0,0,0-.11.27.4.4,0,0,0,.7.27.4.4,0,0,0,0-.54V63.27h.6a.51.51,0,0,1,.51.51v4.57h0v.45a1.33,1.33,0,0,1-.35.9s0,0,0,0l0,0,0,0-1.33,1.33-2,2a1.34,1.34,0,0,1-.84.39h-.11a1.34,1.34,0,0,1-1-.39l-.35-.35-.94-.93Zm7.33-3.65a.2.2,0,0,1,.39,0A.2.2,0,0,1,157.28,66.2Z" transform="translate(-22.21 -0.13)"/><path class="cls-1" d="M170.32,67v.59h3v3.13l.29.29.3.3V62.6h-3.56v.59h3v.08h0v1.56H171a.39.39,0,0,0-.27-.11.4.4,0,0,0-.28.69.39.39,0,0,0,.55,0h2.29V67Zm.41-1.66a.19.19,0,1,1,0-.38A.19.19,0,0,1,170.73,65.31Z" transform="translate(-22.21 -0.13)"/><path class="cls-1" d="M171.11,69.85l-.47.47,2,2,.73.73.55.56a2,2,0,0,0,1.25.58h.18a2,2,0,0,0,1.42-.59l2.9-2.9.39-.39,0,0,0,0,0,0,0,0a2,2,0,0,0,.53-1.35V63.45h0v-.09a.76.76,0,0,0-.75-.76h-3.33v.67h0V67h-1.87v.59h1.87v3.72l.59-.59V63.27h1.12v2.66a.37.37,0,0,0-.11.27.4.4,0,0,0,.7.27.4.4,0,0,0,0-.54V63.27h.6a.51.51,0,0,1,.51.51v4.57h0v.45a1.33,1.33,0,0,1-.35.9s0,0,0,0l0,0,0,0-1.33,1.33-2,2a1.34,1.34,0,0,1-.84.39h-.11a1.38,1.38,0,0,1-1-.39l-.34-.35-.94-.93Zm7.33-3.65a.2.2,0,0,1,.39,0A.2.2,0,0,1,178.44,66.2Z" transform="translate(-22.21 -0.13)"/><path class="cls-1" d="M190.79,81.4v-.58h-3V77.68l-.3-.29-.29-.3v8.68h3.55v-.59h-3V85.1h0V83.54h2.29a.37.37,0,0,0,.27.11.4.4,0,0,0,.27-.69.38.38,0,0,0-.54,0h-2.29V81.4Zm-.4,1.66a.19.19,0,0,1,0,.38A.19.19,0,1,1,190.39,83.06Z" transform="translate(-22.21 -0.13)"/><path class="cls-1" d="M190,78.53l.48-.48-2-2-.73-.73-.55-.55a2,2,0,0,0-1.25-.59h-.18a2,2,0,0,0-1.43.59l-2.9,2.9-.39.38,0,0a.08.08,0,0,0,0,0l0,0,0,0a2,2,0,0,0-.52,1.36v5.36h0V85a.76.76,0,0,0,.76.76h3.32V85.1h0V81.4h1.88v-.58h-1.88V77.09l-.58.59V85.1h-1.13V82.45a.41.41,0,0,0,.11-.28.4.4,0,0,0-.69-.27.39.39,0,0,0,0,.55V85.1h-.61a.51.51,0,0,1-.51-.51V80h0v-.45a1.32,1.32,0,0,1,.34-.9l0,0,0,0,0,0,1.33-1.33,2-2a1.37,1.37,0,0,1,.84-.39h.11a1.34,1.34,0,0,1,.95.39l.35.35.93.94Zm-7.33,3.64a.19.19,0,1,1-.38,0A.19.19,0,0,1,182.67,82.17Z" transform="translate(-22.21 -0.13)"/><path class="cls-1" d="M169.64,81.4v-.58h-3V77.68l-.3-.29-.29-.3v8.68h3.55v-.59h-3V85.1h0V83.54H169a.37.37,0,0,0,.27.11.4.4,0,0,0,.27-.69.38.38,0,0,0-.54,0h-2.29V81.4Zm-.41,1.66a.19.19,0,0,1,0,.38A.19.19,0,0,1,169.23,83.06Z" transform="translate(-22.21 -0.13)"/><path class="cls-1" d="M168.85,78.53l.47-.48-2-2-.73-.73-.55-.55a2,2,0,0,0-1.25-.59h-.18a2,2,0,0,0-1.43.59l-2.9,2.9-.39.38,0,0a.08.08,0,0,0,0,0l0,0,0,0a2,2,0,0,0-.52,1.36v5.36h0V85a.76.76,0,0,0,.76.76h3.32V85.1h0V81.4h1.88v-.58h-1.88V77.09l-.58.59V85.1h-1.13V82.45a.41.41,0,0,0,.11-.28.4.4,0,0,0-.69-.27.39.39,0,0,0,0,.55V85.1h-.61a.51.51,0,0,1-.51-.51V80h0v-.45a1.32,1.32,0,0,1,.34-.9l0,0,0,0,0,0,1.33-1.33,2-2a1.4,1.4,0,0,1,.84-.39h.11a1.34,1.34,0,0,1,.95.39l.35.35.93.94Zm-7.34,3.64a.19.19,0,1,1-.38,0A.19.19,0,0,1,161.51,82.17Z" transform="translate(-22.21 -0.13)"/><path class="cls-1" d="M148.48,81.4v-.58h-3V77.68l-.3-.29-.29-.3v8.68h3.55v-.59h-3V85.1h0V83.54h2.29a.37.37,0,0,0,.27.11.4.4,0,0,0,.27-.69.38.38,0,0,0-.54,0h-2.29V81.4Zm-.41,1.66a.19.19,0,0,1,0,.38A.19.19,0,0,1,148.07,83.06Z" transform="translate(-22.21 -0.13)"/><path class="cls-1" d="M147.69,78.53l.47-.48-2-2-.73-.73-.55-.55a2,2,0,0,0-1.25-.59h-.18a2,2,0,0,0-1.43.59l-2.9,2.9-.38.38,0,0,0,0a.08.08,0,0,0,0,0l0,0a2,2,0,0,0-.52,1.36v5.36h0V85a.76.76,0,0,0,.76.76h3.33V85.1h0V81.4H144v-.58h-1.87V77.09l-.59.59V85.1h-1.13V82.45a.41.41,0,0,0,.11-.28.4.4,0,1,0-.69.28V85.1h-.61a.51.51,0,0,1-.51-.51V80h0v-.45a1.32,1.32,0,0,1,.34-.9l0,0,0,0,0,0,1.33-1.33,2-2a1.4,1.4,0,0,1,.84-.39h.11a1.34,1.34,0,0,1,.95.39l.35.35.94.94Zm-7.34,3.64a.19.19,0,1,1-.38,0A.19.19,0,0,1,140.35,82.17Z" transform="translate(-22.21 -0.13)"/><path class="cls-1" d="M127.32,81.4v-.58h-3V77.68l-.29-.29-.3-.3v8.68h3.55v-.59h-3V85.1h0V83.54h2.29a.39.39,0,0,0,.27.11.4.4,0,0,0,.27-.69.38.38,0,0,0-.54,0h-2.29V81.4Zm-.41,1.66a.19.19,0,1,1,0,.38A.19.19,0,0,1,126.91,83.06Z" transform="translate(-22.21 -0.13)"/><path class="cls-1" d="M126.53,78.53l.47-.48-2-2-.73-.73-.55-.55a2,2,0,0,0-1.25-.59h-.18a2,2,0,0,0-1.43.59l-2.9,2.9-.38.38,0,0s0,0,0,0,0,0,0,0l0,0a2,2,0,0,0-.52,1.36v5.36h0V85a.75.75,0,0,0,.75.76H121V85.1h0V81.4h1.87v-.58H121V77.09l-.59.59V85.1H119.3V82.45a.45.45,0,0,0,.1-.28.4.4,0,0,0-.69-.27.41.41,0,0,0,0,.55V85.1h-.61a.51.51,0,0,1-.51-.51V80h0v-.45a1.37,1.37,0,0,1,.34-.9l0,0,0,0,0,0,1.33-1.33,2-2a1.4,1.4,0,0,1,.84-.39h.11a1.34,1.34,0,0,1,1,.39l.35.35.94.94Zm-7.34,3.64a.19.19,0,1,1-.38,0A.19.19,0,0,1,119.19,82.17Z" transform="translate(-22.21 -0.13)"/><path class="cls-1" d="M106.16,81.4v-.58h-3V77.68l-.29-.29-.3-.3v8.68h3.55v-.59h-3V85.1h0V83.54h2.29a.39.39,0,0,0,.27.11A.4.4,0,0,0,106,83a.39.39,0,0,0-.55,0h-2.29V81.4Zm-.41,1.66a.19.19,0,1,1,0,.38A.19.19,0,0,1,105.75,83.06Z" transform="translate(-22.21 -0.13)"/><path class="cls-1" d="M105.37,78.53l.47-.48-2-2-.73-.73-.55-.55a2,2,0,0,0-1.25-.59h-.18a2,2,0,0,0-1.43.59l-2.9,2.9-.38.38,0,0,0,0s0,0,0,0l0,0a2,2,0,0,0-.52,1.36v5.36h0V85a.75.75,0,0,0,.75.76h3.33V85.1h0V81.4h1.87v-.58H99.85V77.09l-.59.59V85.1H98.14V82.45a.45.45,0,0,0,.1-.28.4.4,0,0,0-.69-.27.41.41,0,0,0,0,.55V85.1h-.61a.51.51,0,0,1-.51-.51V80h0v-.45a1.33,1.33,0,0,1,.35-.9s0,0,0,0l0,0,0,0,1.33-1.33,2-2a1.4,1.4,0,0,1,.84-.39h.11a1.34,1.34,0,0,1,1,.39l.35.35.94.94ZM98,82.17a.2.2,0,0,1-.39,0A.2.2,0,0,1,98,82.17Z" transform="translate(-22.21 -0.13)"/><path class="cls-1" d="M85,81.4v-.58H82V77.68l-.29-.29-.3-.3v8.68H85v-.59H82V85.1h0V83.54h2.29a.39.39,0,0,0,.27.11.4.4,0,0,0,.28-.69.39.39,0,0,0-.55,0H82V81.4Zm-.41,1.66a.19.19,0,1,1,0,.38A.19.19,0,0,1,84.59,83.06Z" transform="translate(-22.21 -0.13)"/><path class="cls-1" d="M84.21,78.53l.47-.48-2-2L82,75.33l-.55-.55a2,2,0,0,0-1.25-.59H80a2,2,0,0,0-1.42.59l-2.91,2.9-.38.38,0,0,0,0s0,0,0,0l0,0a2,2,0,0,0-.52,1.36v5.36h0V85a.76.76,0,0,0,.75.76h3.33V85.1h0V81.4h1.87v-.58H78.69V77.09l-.59.59V85.1H77V82.45a.46.46,0,0,0,.11-.28.41.41,0,0,0-.7-.27.41.41,0,0,0,0,.55V85.1h-.61a.51.51,0,0,1-.51-.51V80h0v-.45a1.33,1.33,0,0,1,.35-.9s0,0,0,0l0,0,0,0L77,77.24l2-2a1.4,1.4,0,0,1,.84-.39H80a1.34,1.34,0,0,1,1,.39l.35.35.94.94Zm-7.33,3.64a.2.2,0,0,1-.39,0A.2.2,0,0,1,76.88,82.17Z" transform="translate(-22.21 -0.13)"/><path class="cls-1" d="M63.84,81.4v-.58h-3V77.68l-.29-.29-.3-.3v8.68h3.55v-.59h-3V85.1h0V83.54h2.29a.39.39,0,0,0,.27.11.4.4,0,0,0,.28-.69.39.39,0,0,0-.55,0H60.87V81.4Zm-.41,1.66a.19.19,0,1,1,0,.38A.19.19,0,0,1,63.43,83.06Z" transform="translate(-22.21 -0.13)"/><path class="cls-1" d="M63.05,78.53l.47-.48-2-2-.73-.73-.55-.55A2,2,0,0,0,59,74.19h-.18a2,2,0,0,0-1.42.59l-2.9,2.9-.39.38,0,0,0,0s0,0,0,0l0,0a2,2,0,0,0-.53,1.36v5.36h0V85a.76.76,0,0,0,.75.76h3.33V85.1h0V81.4H59.4v-.58H57.53V77.09l-.59.59V85.1H55.82V82.45a.46.46,0,0,0,.11-.28.41.41,0,0,0-.7-.27.41.41,0,0,0,0,.55V85.1h-.6a.51.51,0,0,1-.51-.51V80h0v-.45a1.33,1.33,0,0,1,.35-.9s0,0,0,0l0,0,0,0,1.33-1.33,2-2a1.4,1.4,0,0,1,.84-.39h.11a1.34,1.34,0,0,1,1,.39l.35.35.94.94Zm-7.33,3.64a.19.19,0,1,1-.39,0A.19.19,0,0,1,55.72,82.17Z" transform="translate(-22.21 -0.13)"/><path class="cls-1" d="M42.68,81.4v-.58h-3V77.68l-.29-.29-.3-.3v8.68h3.56v-.59h-3V85.1h0V83.54H42a.39.39,0,0,0,.27.11.4.4,0,0,0,.28-.69A.39.39,0,0,0,42,83H39.71V81.4Zm-.41,1.66a.19.19,0,1,1,0,.38A.19.19,0,0,1,42.27,83.06Z" transform="translate(-22.21 -0.13)"/><path class="cls-1" d="M41.89,78.53l.47-.48-2-2-.73-.73-.55-.55a2,2,0,0,0-1.25-.59h-.18a2,2,0,0,0-1.42.59l-2.9,2.9-.39.38,0,0,0,0,0,0,0,0a2,2,0,0,0-.53,1.36v5.36h0V85a.76.76,0,0,0,.75.76h3.33V85.1h0V81.4h1.87v-.58H36.37V77.09l-.59.59V85.1H34.66V82.45a.41.41,0,0,0,.11-.28.41.41,0,0,0-.7-.27.41.41,0,0,0,0,.55V85.1h-.6a.51.51,0,0,1-.51-.51V80h0v-.45a1.33,1.33,0,0,1,.35-.9s0,0,0,0l0,0,0,0,1.33-1.33,2-2a1.4,1.4,0,0,1,.84-.39h.11a1.38,1.38,0,0,1,1,.39l.34.35.94.94Zm-7.33,3.64a.2.2,0,0,1-.39,0A.2.2,0,0,1,34.56,82.17Z" transform="translate(-22.21 -0.13)"/><path class="cls-1" d="M22.21,91.65v.59h3v3.14l.3.29.29.29V87.28H22.21v.59h3V88h0v1.55H22.88a.41.41,0,0,0-.27-.1.4.4,0,1,0,.27.69h2.29v1.55Zm.4-1.65a.2.2,0,0,1,0-.39A.2.2,0,0,1,22.61,90Z" transform="translate(-22.21 -0.13)"/><path class="cls-1" d="M23,94.53l-.48.48,2,2,.73.73.55.55a2,2,0,0,0,1.25.58h.18a2,2,0,0,0,1.43-.59l2.9-2.9.39-.39,0,0s0,0,0,0,0,0,0,0l0,0a2,2,0,0,0,.52-1.36V88.13h0v-.08a.77.77,0,0,0-.76-.77H28.52V88h0v3.69H26.64v.59h1.88V96l.58-.58V88h1.13v2.65a.39.39,0,0,0-.11.27.4.4,0,0,0,.69.28.39.39,0,0,0,0-.55V88h.61a.51.51,0,0,1,.51.51V93h0v.45a1.32,1.32,0,0,1-.34.9l0,0,0,0,0,0-1.33,1.34-2,2a1.27,1.27,0,0,1-.84.39h-.11a1.31,1.31,0,0,1-.95-.4l-.35-.34L25,96.52Zm7.33-3.65a.19.19,0,0,1,.38,0A.19.19,0,1,1,30.33,90.88Z" transform="translate(-22.21 -0.13)"/><path class="cls-1" d="M43.36,91.65v.59h3v3.14l.3.29.29.29V87.28H43.37v.59h3V88h0v1.55H44a.41.41,0,0,0-.27-.1.4.4,0,1,0,.27.69h2.29v1.55ZM43.77,90a.2.2,0,0,1,0-.39A.2.2,0,0,1,43.77,90Z" transform="translate(-22.21 -0.13)"/><path class="cls-1" d="M44.15,94.53l-.47.48,2,2,.73.73.55.55a2,2,0,0,0,1.25.58h.18a2,2,0,0,0,1.43-.59l2.9-2.9L53.1,95l0,0s0,0,0,0l0,0,0,0a2,2,0,0,0,.52-1.36V88.13h0v-.08a.77.77,0,0,0-.76-.77H49.68V88h0v3.69H47.8v.59h1.88V96l.58-.58V88h1.13v2.65a.39.39,0,0,0-.11.27.4.4,0,0,0,.69.28.39.39,0,0,0,0-.55V88h.61a.51.51,0,0,1,.51.51V93h0v.45a1.32,1.32,0,0,1-.34.9l0,0,0,0s0,0,0,0l-1.33,1.34-2,2a1.29,1.29,0,0,1-.84.39h-.11a1.31,1.31,0,0,1-1-.4l-.35-.34-.93-.94Zm7.34-3.65a.19.19,0,0,1,.38,0A.19.19,0,1,1,51.49,90.88Z" transform="translate(-22.21 -0.13)"/><path class="cls-1" d="M64.52,91.65v.59h3v3.14l.3.29.29.29V87.28H64.53v.59h3V88h0v1.55H65.2a.41.41,0,0,0-.27-.1.4.4,0,1,0,.27.69h2.29v1.55ZM64.93,90a.2.2,0,0,1,0-.39A.2.2,0,0,1,64.93,90Z" transform="translate(-22.21 -0.13)"/><path class="cls-1" d="M65.31,94.53l-.47.48,2,2,.73.73.55.55a2,2,0,0,0,1.25.58h.18A2,2,0,0,0,71,98.28l2.9-2.9.38-.39,0,0,0,0,0,0,0,0a2,2,0,0,0,.52-1.36V88.13h0v-.08a.77.77,0,0,0-.76-.77H70.83V88h0v3.69H69v.59h1.87V96l.59-.58V88h1.13v2.65a.39.39,0,0,0-.11.27.4.4,0,1,0,.69-.27V88h.61a.51.51,0,0,1,.51.51V93h0v.45a1.32,1.32,0,0,1-.34.9l0,0,0,0,0,0-1.33,1.34-2,2a1.29,1.29,0,0,1-.84.39h-.11a1.31,1.31,0,0,1-1-.4l-.35-.34-.94-.94Zm7.34-3.65a.19.19,0,0,1,.38,0A.19.19,0,1,1,72.65,90.88Z" transform="translate(-22.21 -0.13)"/><path class="cls-1" d="M85.68,91.65v.59h3v3.14l.29.29.3.29V87.28H85.69v.59h3V88h0v1.55H86.36a.43.43,0,0,0-.27-.1.4.4,0,1,0,.27.69h2.29v1.55ZM86.09,90a.2.2,0,0,1,0-.39A.2.2,0,0,1,86.09,90Z" transform="translate(-22.21 -0.13)"/><path class="cls-1" d="M86.47,94.53,86,95l2,2,.73.73.55.55a2,2,0,0,0,1.25.58h.18a2,2,0,0,0,1.43-.59l2.9-2.9.38-.39,0,0,0,0,0,0,0,0a2,2,0,0,0,.52-1.36V88.13h0v-.08a.77.77,0,0,0-.75-.77H92V88h0v3.69H90.12v.59H92V96l.59-.58V88H93.7v2.65a.43.43,0,0,0-.1.27.4.4,0,0,0,.69.28.41.41,0,0,0,0-.55V88h.61a.51.51,0,0,1,.51.51V93h0v.45a1.37,1.37,0,0,1-.34.9l0,0,0,0s0,0,0,0l-1.33,1.34-2,2a1.29,1.29,0,0,1-.84.39H90.7a1.31,1.31,0,0,1-1-.4l-.35-.34-.94-.94Zm7.34-3.65a.19.19,0,0,1,.38,0A.19.19,0,1,1,93.81,90.88Z" transform="translate(-22.21 -0.13)"/><path class="cls-1" d="M106.84,91.65v.59h3v3.14l.29.29.3.29V87.28h-3.55v.59h3V88h0v1.55h-2.29a.43.43,0,0,0-.27-.1.4.4,0,0,0-.28.69.41.41,0,0,0,.55,0h2.29v1.55Zm.41-1.65a.2.2,0,0,1,0-.39A.2.2,0,0,1,107.25,90Z" transform="translate(-22.21 -0.13)"/><path class="cls-1" d="M107.63,94.53l-.47.48,2,2,.73.73.55.55a2,2,0,0,0,1.25.58h.18a2,2,0,0,0,1.43-.59l2.9-2.9.38-.39,0,0,0,0,0,0,0,0a2.06,2.06,0,0,0,.52-1.36V88.13h0v-.08a.77.77,0,0,0-.75-.77h-3.33V88h0v3.69h-1.87v.59h1.87V96l.59-.58V88h1.12v2.65a.43.43,0,0,0-.1.27.4.4,0,0,0,.69.28.41.41,0,0,0,0-.55V88h.61a.51.51,0,0,1,.51.51V93h0v.45a1.33,1.33,0,0,1-.35.9s0,0,0,0l0,0s0,0,0,0l-1.33,1.34-2,2a1.29,1.29,0,0,1-.84.39h-.11a1.31,1.31,0,0,1-1-.4l-.35-.34-.94-.94ZM115,90.88a.2.2,0,0,1,.39,0A.2.2,0,1,1,115,90.88Z" transform="translate(-22.21 -0.13)"/><path class="cls-1" d="M128,91.65v.59h3v3.14l.29.29.3.29V87.28H128v.59h3V88h0v1.55h-2.29a.43.43,0,0,0-.27-.1.4.4,0,0,0-.28.69.41.41,0,0,0,.55,0H131v1.55Zm.41-1.65a.19.19,0,0,1,0-.39A.19.19,0,0,1,128.41,90Z" transform="translate(-22.21 -0.13)"/><path class="cls-1" d="M128.79,94.53l-.47.48,2,2,.73.73.55.55a2,2,0,0,0,1.25.58H133a2,2,0,0,0,1.42-.59l2.91-2.9.38-.39,0,0,0,0,0,0,0,0a2.06,2.06,0,0,0,.52-1.36V88.13h0v-.08a.77.77,0,0,0-.75-.77h-3.33V88h0v3.69h-1.87v.59h1.87V96l.59-.58V88H136v2.65a.44.44,0,0,0-.11.27.41.41,0,0,0,.7.28.41.41,0,0,0,0-.55V88h.61a.51.51,0,0,1,.51.51V93h0v.45a1.33,1.33,0,0,1-.35.9s0,0,0,0l0,0s0,0,0,0L136,95.82l-2,2a1.29,1.29,0,0,1-.84.39H133a1.31,1.31,0,0,1-1-.4l-.35-.34-.94-.94Zm7.33-3.65a.2.2,0,0,1,.39,0A.2.2,0,1,1,136.12,90.88Z" transform="translate(-22.21 -0.13)"/><path class="cls-1" d="M149.16,91.65v.59h3v3.14l.29.29.3.29V87.28h-3.55v.59h3V88h0v1.55h-2.29a.43.43,0,0,0-.27-.1.4.4,0,0,0-.28.69.41.41,0,0,0,.55,0h2.29v1.55Zm.41-1.65a.19.19,0,0,1,0-.39A.19.19,0,0,1,149.57,90Z" transform="translate(-22.21 -0.13)"/><path class="cls-1" d="M150,94.53l-.47.48,2,2,.73.73.55.55a2,2,0,0,0,1.25.58h.18a2,2,0,0,0,1.42-.59l2.9-2.9.39-.39,0,0,0,0,0,0,0,0a2,2,0,0,0,.53-1.36V88.13h0v-.08a.77.77,0,0,0-.75-.77h-3.33V88h0v3.69H153.6v.59h1.87V96l.59-.58V88h1.12v2.65a.44.44,0,0,0-.11.27.41.41,0,0,0,.7.28.41.41,0,0,0,0-.55V88h.6a.51.51,0,0,1,.51.51V93h0v.45a1.33,1.33,0,0,1-.35.9s0,0,0,0l0,0s0,0,0,0l-1.33,1.34-2,2a1.29,1.29,0,0,1-.84.39h-.11a1.31,1.31,0,0,1-1-.4l-.35-.34-.94-.94Zm7.33-3.65a.2.2,0,0,1,.39,0A.2.2,0,1,1,157.28,90.88Z" transform="translate(-22.21 -0.13)"/><path class="cls-1" d="M170.32,91.65v.59h3v3.14l.29.29.3.29V87.28h-3.56v.59h3V88h0v1.55H171a.43.43,0,0,0-.27-.1.4.4,0,0,0-.28.69.41.41,0,0,0,.55,0h2.29v1.55Zm.41-1.65a.2.2,0,1,1,0-.39A.2.2,0,0,1,170.73,90Z" transform="translate(-22.21 -0.13)"/><path class="cls-1" d="M171.11,94.53l-.47.48,2,2,.73.73.55.55a2,2,0,0,0,1.25.58h.18a2,2,0,0,0,1.42-.59l2.9-2.9.39-.39,0,0,0,0,0,0,0,0a2,2,0,0,0,.53-1.36V88.13h0v-.08a.77.77,0,0,0-.75-.77h-3.33V88h0v3.69h-1.87v.59h1.87V96l.59-.58V88h1.12v2.65a.39.39,0,0,0-.11.27.41.41,0,0,0,.7.28.41.41,0,0,0,0-.55V88h.6a.51.51,0,0,1,.51.51V93h0v.45a1.33,1.33,0,0,1-.35.9s0,0,0,0l0,0s0,0,0,0l-1.33,1.34-2,2a1.29,1.29,0,0,1-.84.39h-.11a1.35,1.35,0,0,1-1-.4l-.34-.34-.94-.94Zm7.33-3.65a.2.2,0,0,1,.39,0A.2.2,0,0,1,178.44,90.88Z" transform="translate(-22.21 -0.13)"/></svg>