<svg xmlns="http://www.w3.org/2000/svg" xmlns:xlink="http://www.w3.org/1999/xlink" width="302" zoomAndPan="magnify" viewBox="0 0 226.5 198.749996" height="264" preserveAspectRatio="xMidYMid meet" version="1.0"><defs><clipPath id="aef0dc9111"><path d="M 14.171875 156 L 30 156 L 30 174 L 14.171875 174 Z M 14.171875 156 " clip-rule="nonzero"/></clipPath><clipPath id="a16dbeb55c"><path d="M 201 161 L 212.921875 161 L 212.921875 174 L 201 174 Z M 201 161 " clip-rule="nonzero"/></clipPath></defs><g clip-path="url(#aef0dc9111)"><path fill="#f37820" d="M 29.597656 173.035156 L 25.742188 173.035156 L 25.742188 166.363281 L 17.882812 166.363281 L 17.882812 173.035156 L 14.171875 173.035156 L 14.171875 156.425781 L 17.882812 156.425781 L 17.882812 162.949219 L 25.742188 162.949219 L 25.742188 156.425781 L 29.597656 156.425781 Z M 29.597656 173.035156 " fill-opacity="1" fill-rule="nonzero"/></g><path fill="#f37820" d="M 39.238281 161.023438 C 41.019531 161.023438 42.652344 161.617188 43.984375 162.800781 C 45.320312 163.988281 45.914062 165.472656 45.914062 167.101562 C 45.914062 168.734375 45.320312 170.21875 43.984375 171.40625 C 42.652344 172.589844 41.167969 173.183594 39.238281 173.183594 C 37.460938 173.183594 35.828125 172.589844 34.492188 171.40625 C 33.160156 170.21875 32.566406 168.734375 32.566406 167.101562 C 32.566406 165.472656 33.160156 163.988281 34.492188 162.800781 C 35.828125 161.617188 37.460938 161.023438 39.238281 161.023438 Z M 39.238281 163.988281 C 38.347656 163.988281 37.609375 164.285156 37.015625 164.878906 C 36.421875 165.472656 36.125 166.214844 36.125 167.101562 C 36.125 167.992188 36.421875 168.734375 37.015625 169.328125 C 37.609375 169.921875 38.347656 170.21875 39.238281 170.21875 C 40.128906 170.21875 40.871094 169.921875 41.464844 169.328125 C 42.058594 168.734375 42.355469 167.992188 42.355469 167.101562 C 42.355469 166.214844 42.058594 165.472656 41.464844 164.878906 C 40.871094 164.285156 40.128906 163.988281 39.238281 163.988281 Z M 39.238281 163.988281 " fill-opacity="1" fill-rule="nonzero"/><path fill="#f37820" d="M 59.855469 162.800781 C 61.488281 161.46875 62.824219 161.023438 64.601562 161.023438 C 66.976562 161.023438 68.753906 162.355469 68.753906 165.027344 L 68.753906 173.035156 L 65.195312 173.035156 L 65.195312 166.066406 C 65.195312 164.582031 64.453125 163.839844 63.117188 163.839844 C 62.082031 163.839844 61.042969 164.136719 60.152344 164.878906 C 60.152344 165.472656 60.300781 165.917969 60.300781 166.511719 L 60.300781 173.183594 L 56.742188 173.183594 L 56.742188 166.214844 C 56.742188 164.730469 56 163.988281 54.664062 163.988281 C 53.625 163.988281 52.738281 164.285156 51.847656 165.027344 L 51.847656 173.183594 L 48.285156 173.183594 L 48.285156 161.320312 L 51.847656 161.320312 L 51.847656 162.800781 C 53.179688 161.617188 54.664062 161.023438 56.296875 161.023438 C 58.078125 161.023438 59.261719 161.617188 59.855469 162.800781 Z M 59.855469 162.800781 " fill-opacity="1" fill-rule="nonzero"/><path fill="#f37820" d="M 83.734375 167.101562 L 83.734375 167.992188 L 74.835938 167.992188 C 74.835938 168.734375 75.132812 169.476562 75.875 169.921875 C 76.46875 170.367188 77.210938 170.664062 78.097656 170.664062 C 79.285156 170.664062 80.324219 170.21875 81.066406 169.476562 L 82.847656 171.109375 C 81.363281 172.441406 79.730469 173.183594 77.804688 173.183594 C 76.023438 173.183594 74.539062 172.589844 73.351562 171.40625 C 72.167969 170.21875 71.574219 168.734375 71.574219 167.101562 C 71.574219 165.472656 72.167969 163.988281 73.351562 162.800781 C 74.539062 161.617188 76.023438 161.023438 77.804688 161.023438 C 81.214844 161.023438 83.734375 163.691406 83.734375 167.101562 Z M 75.578125 164.285156 C 74.984375 164.878906 74.6875 165.472656 74.6875 166.363281 L 80.324219 166.363281 C 80.324219 164.730469 79.285156 163.394531 77.507812 163.394531 C 76.765625 163.542969 76.171875 163.839844 75.578125 164.285156 Z M 75.578125 164.285156 " fill-opacity="1" fill-rule="nonzero"/><path fill="#f37820" d="M 98.269531 161.023438 C 100.050781 161.023438 101.683594 161.617188 103.015625 162.800781 C 104.351562 163.988281 104.945312 165.472656 104.945312 167.101562 C 104.945312 168.734375 104.351562 170.21875 103.015625 171.40625 C 101.683594 172.589844 100.199219 173.183594 98.269531 173.183594 C 96.492188 173.183594 94.859375 172.589844 93.523438 171.40625 C 92.191406 170.21875 91.597656 168.734375 91.597656 167.101562 C 91.597656 165.472656 92.191406 163.988281 93.523438 162.800781 C 94.859375 161.617188 96.492188 161.023438 98.269531 161.023438 Z M 98.269531 163.988281 C 97.382812 163.988281 96.640625 164.285156 96.046875 164.878906 C 95.453125 165.472656 95.15625 166.214844 95.15625 167.101562 C 95.15625 167.992188 95.453125 168.734375 96.046875 169.328125 C 96.640625 169.921875 97.382812 170.21875 98.269531 170.21875 C 99.160156 170.21875 99.902344 169.921875 100.496094 169.328125 C 101.089844 168.734375 101.386719 167.992188 101.386719 167.101562 C 101.386719 166.214844 101.089844 165.472656 100.496094 164.878906 C 99.902344 164.285156 99.160156 163.988281 98.269531 163.988281 Z M 98.269531 163.988281 " fill-opacity="1" fill-rule="nonzero"/><path fill="#f37820" d="M 115.476562 156.722656 L 115.03125 158.945312 C 114.4375 158.796875 113.992188 158.648438 113.546875 158.648438 C 112.511719 158.648438 111.769531 159.242188 111.769531 160.429688 L 111.769531 161.171875 L 115.03125 161.171875 L 115.03125 163.839844 L 111.769531 163.839844 L 111.769531 173.035156 L 108.207031 173.035156 L 108.207031 163.839844 L 106.578125 163.839844 L 106.578125 161.171875 L 108.207031 161.171875 L 108.207031 160.28125 C 108.207031 157.460938 109.988281 156.128906 112.511719 156.128906 C 113.398438 156.277344 114.4375 156.425781 115.476562 156.722656 Z M 115.476562 156.722656 " fill-opacity="1" fill-rule="nonzero"/><path fill="#f37820" d="M 136.6875 159.835938 L 127.195312 159.835938 L 127.195312 163.097656 L 136.09375 163.097656 L 136.09375 166.363281 L 127.195312 166.363281 L 127.195312 169.773438 L 136.835938 169.773438 L 136.835938 173.183594 L 123.335938 173.183594 L 123.335938 156.574219 L 136.539062 156.574219 L 136.539062 159.835938 Z M 136.6875 159.835938 " fill-opacity="1" fill-rule="nonzero"/><path fill="#f37820" d="M 139.652344 156.425781 L 143.210938 156.425781 L 143.210938 173.035156 L 139.652344 173.035156 Z M 139.652344 156.425781 " fill-opacity="1" fill-rule="nonzero"/><path fill="#f37820" d="M 157.894531 167.101562 L 157.894531 167.992188 L 148.996094 167.992188 C 148.996094 168.734375 149.292969 169.476562 150.035156 169.921875 C 150.628906 170.367188 151.371094 170.664062 152.261719 170.664062 C 153.445312 170.664062 154.484375 170.21875 155.226562 169.476562 L 157.007812 171.109375 C 155.523438 172.441406 153.890625 173.183594 151.964844 173.183594 C 150.183594 173.183594 148.699219 172.589844 147.515625 171.40625 C 146.328125 170.21875 145.734375 168.734375 145.734375 167.101562 C 145.734375 165.472656 146.328125 163.988281 147.515625 162.800781 C 148.699219 161.617188 150.183594 161.023438 151.964844 161.023438 C 155.523438 161.023438 158.042969 163.691406 157.894531 167.101562 Z M 149.886719 164.285156 C 149.292969 164.878906 148.996094 165.472656 148.996094 166.363281 L 154.632812 166.363281 C 154.632812 164.730469 153.59375 163.394531 151.816406 163.394531 C 151.074219 163.542969 150.332031 163.839844 149.886719 164.285156 Z M 149.886719 164.285156 " fill-opacity="1" fill-rule="nonzero"/><path fill="#f37820" d="M 171.542969 163.542969 L 168.871094 165.027344 C 168.277344 164.285156 167.535156 163.988281 166.5 163.988281 C 165.609375 163.988281 164.867188 164.285156 164.273438 164.878906 C 163.679688 165.472656 163.382812 166.214844 163.382812 167.101562 C 163.382812 167.992188 163.679688 168.734375 164.273438 169.328125 C 164.867188 169.921875 165.609375 170.21875 166.5 170.21875 C 167.535156 170.21875 168.277344 169.773438 168.871094 169.03125 L 171.542969 170.515625 C 170.355469 172.144531 168.425781 173.183594 166.203125 173.183594 C 164.421875 173.183594 162.9375 172.589844 161.605469 171.40625 C 160.417969 170.21875 159.675781 168.734375 159.675781 167.101562 C 159.675781 165.472656 160.269531 163.988281 161.605469 162.800781 C 162.789062 161.617188 164.421875 161.023438 166.203125 161.023438 C 168.425781 161.023438 170.355469 161.914062 171.542969 163.542969 Z M 171.542969 163.542969 " fill-opacity="1" fill-rule="nonzero"/><path fill="#f37820" d="M 178.363281 161.171875 L 181.480469 161.171875 L 181.480469 163.839844 L 178.363281 163.839844 L 178.363281 168.585938 C 178.363281 169.773438 179.105469 170.515625 180.292969 170.515625 C 180.886719 170.515625 181.332031 170.367188 181.925781 170.070312 L 182.367188 172.441406 C 181.183594 173.035156 180.144531 173.332031 178.957031 173.332031 C 177.769531 173.332031 176.882812 173.035156 175.992188 172.292969 C 175.25 171.554688 174.804688 170.515625 174.804688 169.179688 L 174.804688 163.839844 L 173.023438 163.839844 L 173.023438 161.171875 L 174.804688 161.171875 L 174.804688 158.054688 L 178.363281 158.054688 Z M 178.363281 161.171875 " fill-opacity="1" fill-rule="nonzero"/><path fill="#f37820" d="M 192.75 163.839844 C 191.121094 163.839844 189.636719 164.582031 188.300781 166.066406 L 188.300781 173.183594 L 184.742188 173.183594 L 184.742188 161.320312 L 188.300781 161.320312 L 188.300781 163.542969 C 189.488281 162.0625 191.121094 161.171875 192.75 161.171875 Z M 192.75 163.839844 " fill-opacity="1" fill-rule="nonzero"/><path fill="#f37820" d="M 198.089844 157.019531 C 198.832031 157.609375 198.832031 158.648438 198.089844 159.242188 C 197.347656 159.835938 196.164062 159.835938 195.421875 159.242188 C 194.679688 158.648438 194.679688 157.609375 195.421875 157.019531 C 196.164062 156.425781 197.347656 156.425781 198.089844 157.019531 Z M 198.535156 173.035156 L 194.976562 173.035156 L 194.976562 161.171875 L 198.535156 161.171875 Z M 198.535156 173.035156 " fill-opacity="1" fill-rule="nonzero"/><g clip-path="url(#a16dbeb55c)"><path fill="#f37820" d="M 212.921875 163.542969 L 210.253906 165.027344 C 209.660156 164.285156 208.917969 163.988281 207.878906 163.988281 C 206.992188 163.988281 206.25 164.285156 205.65625 164.878906 C 205.0625 165.472656 204.765625 166.214844 204.765625 167.101562 C 204.765625 167.992188 205.0625 168.734375 205.65625 169.328125 C 206.25 169.921875 206.992188 170.21875 207.878906 170.21875 C 208.917969 170.21875 209.660156 169.773438 210.253906 169.03125 L 212.921875 170.515625 C 211.738281 172.144531 209.808594 173.183594 207.582031 173.183594 C 205.804688 173.183594 204.320312 172.589844 202.984375 171.40625 C 201.800781 170.21875 201.058594 168.734375 201.058594 167.101562 C 201.058594 165.472656 201.652344 163.988281 202.984375 162.800781 C 204.171875 161.617188 205.804688 161.023438 207.582031 161.023438 C 209.808594 161.023438 211.738281 161.914062 212.921875 163.542969 Z M 212.921875 163.542969 " fill-opacity="1" fill-rule="nonzero"/></g><path fill="#f37820" d="M 167.390625 97.984375 L 167.390625 92.054688 L 137.578125 92.054688 L 137.578125 60.609375 L 134.609375 57.644531 L 131.644531 54.675781 L 131.644531 141.890625 L 167.242188 141.890625 L 167.242188 135.957031 L 137.578125 135.957031 L 137.578125 119.640625 L 160.566406 119.640625 L 160.566406 113.707031 L 137.578125 113.707031 L 137.578125 97.984375 Z M 167.390625 97.984375 " fill-opacity="1" fill-rule="nonzero"/><path fill="#f37820" d="M 131.347656 31.539062 C 127.933594 28.125 123.632812 26.199219 118.738281 25.753906 C 118.144531 25.753906 117.554688 25.753906 116.960938 25.753906 C 111.621094 25.753906 106.429688 27.832031 102.722656 31.6875 L 73.648438 60.609375 L 69.347656 64.910156 C 69.199219 65.058594 69.050781 65.207031 68.902344 65.355469 C 68.753906 65.503906 68.605469 65.652344 68.457031 65.800781 L 68.160156 66.097656 C 64.75 69.953125 62.824219 74.699219 62.824219 79.742188 L 62.824219 134.472656 C 62.824219 138.625 66.234375 142.039062 70.386719 142.039062 L 103.757812 142.039062 L 103.757812 97.984375 L 122.597656 97.984375 L 122.597656 92.054688 L 104.054688 92.054688 L 104.054688 54.824219 L 98.121094 60.757812 L 98.121094 135.214844 L 86.851562 135.214844 L 86.851562 108.515625 L 81.066406 108.515625 L 81.066406 135.214844 L 74.984375 135.214844 C 72.167969 135.214844 69.941406 132.988281 69.941406 130.171875 L 69.941406 79.742188 C 69.941406 76.332031 71.128906 73.214844 73.351562 70.695312 C 73.351562 70.695312 73.648438 70.398438 73.796875 70.25 L 73.945312 70.101562 C 74.09375 69.953125 74.242188 69.804688 74.390625 69.804688 L 87.742188 56.457031 L 107.617188 36.582031 C 109.839844 34.355469 112.953125 32.875 116.070312 32.726562 C 116.515625 32.726562 116.8125 32.726562 117.257812 32.726562 C 120.964844 32.726562 124.375 34.058594 126.75 36.730469 L 130.308594 40.140625 L 159.527344 69.210938 L 164.273438 64.464844 Z M 131.347656 31.539062 " fill-opacity="1" fill-rule="nonzero"/><path fill="#f37820" d="M 163.382812 112.667969 C 161.160156 112.667969 159.378906 114.449219 159.378906 116.675781 C 159.378906 118.898438 161.160156 120.679688 163.382812 120.679688 C 165.609375 120.679688 167.390625 118.898438 167.390625 116.675781 C 167.390625 114.449219 165.609375 112.667969 163.382812 112.667969 Z M 163.382812 118.453125 C 162.347656 118.453125 161.457031 117.5625 161.457031 116.527344 C 161.457031 115.488281 162.347656 114.597656 163.382812 114.597656 C 164.421875 114.597656 165.3125 115.488281 165.3125 116.527344 C 165.3125 117.5625 164.421875 118.453125 163.382812 118.453125 Z M 163.382812 118.453125 " fill-opacity="1" fill-rule="nonzero"/><path fill="#f37820" d="M 83.882812 101.84375 C 81.660156 101.84375 79.878906 103.621094 79.878906 105.847656 C 79.878906 108.070312 81.660156 109.851562 83.882812 109.851562 C 86.109375 109.851562 87.890625 108.070312 87.890625 105.847656 C 88.035156 103.621094 86.109375 101.84375 83.882812 101.84375 Z M 83.882812 107.625 C 82.847656 107.625 81.957031 106.738281 81.957031 105.699219 C 81.957031 104.660156 82.847656 103.917969 83.882812 103.917969 C 84.921875 103.917969 85.8125 104.808594 85.8125 105.847656 C 85.8125 106.886719 85.070312 107.625 83.882812 107.625 Z M 83.882812 107.625 " fill-opacity="1" fill-rule="nonzero"/></svg>